<svg width="12" height="9" viewBox="0 0 12 9" fill="none" xmlns="http://www.w3.org/2000/svg">
<path d="M11.3296 5.90542C11.702 6.42377 11.5865 7.15539 11.0156 7.44081C10.1578 7.86972 9.2198 8.12595 8.2552 8.19029C6.90448 8.2804 5.55551 7.99064 4.36093 7.35381C3.16635 6.71699 2.17387 5.75852 1.49578 4.58687C1.01154 3.75015 0.701439 2.82857 0.579364 1.87727C0.498126 1.2442 1.04119 0.740549 1.67913 0.760802V0.760802C2.31707 0.781054 2.8042 1.32108 2.93236 1.94634C3.03874 2.46531 3.22839 2.96627 3.49625 3.42911C3.95823 4.22734 4.6344 4.88033 5.44825 5.31419C6.2621 5.74805 7.18114 5.94546 8.10137 5.88408C8.63495 5.84848 9.15658 5.7267 9.64674 5.52575C10.2373 5.28364 10.9572 5.38706 11.3296 5.90542V5.90542Z" fill="#3773A9"/>
</svg>
