<svg width="70" height="70" viewBox="0 0 70 70" fill="none" xmlns="http://www.w3.org/2000/svg">
<path d="M29.7616 49.0634C29.7616 50.3843 29.7886 51.4895 29.7616 52.5947C29.7077 54.2391 28.7642 54.9939 27.1199 54.8321C26.2842 54.7513 25.4485 54.6434 24.5051 54.5356C24.3433 55.9643 24.1816 57.2583 24.0737 58.5252C23.939 59.7922 23.265 60.4661 21.9981 60.574C20.7041 60.6818 19.4372 60.8435 18.1432 61.0053C18.1432 61.5714 18.0354 62.0296 18.1702 62.434C18.7632 64.321 17.9006 65.5879 16.6606 66.9358C15.0971 68.661 13.4258 69.3349 11.1075 69.2001C8.25006 69.0115 5.36568 69.1732 2.48129 69.1462C0.756055 69.1462 0.0551765 68.4184 0.0282197 66.6932C0.0282197 63.3236 0.0821334 59.9539 0.00126278 56.5843C-0.0256941 55.3443 0.378659 54.4817 1.24128 53.6191C9.03181 45.8555 16.7954 38.065 24.6129 30.3014C25.4216 29.4927 25.5564 28.8188 25.2868 27.7405C21.8902 15.0438 30.7321 2.02364 43.8062 0.379266C55.7481 -1.13032 66.3691 6.55239 68.6604 18.3595C71.0596 30.7057 62.1368 42.8902 49.6828 44.3998C46.6906 44.7503 43.7792 44.5616 40.8948 43.7798C40.1131 43.5642 39.6548 43.7259 39.1426 44.265C38.0644 45.3972 36.8513 46.4216 35.8269 47.6077C34.8295 48.7668 33.6434 49.2521 32.1339 49.0903C31.433 49.0095 30.7051 49.0634 29.7616 49.0634ZM25.7181 50.519C25.7181 49.4138 25.6912 48.3895 25.7181 47.3651C25.772 45.7207 26.419 45.0738 28.0364 45.0198C29.1956 44.9659 30.3817 45.1007 31.5408 44.9659C32.1878 44.8851 32.9156 44.6155 33.4008 44.1842C34.8026 42.9442 36.1504 41.5963 37.4444 40.2215C38.3878 39.2241 39.3852 39.0624 40.7331 39.4398C42.4314 39.952 44.2105 40.4102 45.9897 40.4911C57.4463 41.0302 66.3691 31.0831 64.7517 19.7343C63.3229 9.78721 54.1576 2.91321 44.2375 4.36888C32.9426 6.04021 25.9607 17.2004 29.546 27.9561C30.1121 29.6544 29.8425 30.7866 28.6025 32.0266C20.6772 39.8711 12.8327 47.7694 4.96133 55.6408C4.61089 55.9913 4.12566 56.4765 4.09871 56.9078C4.01784 59.5765 4.07175 62.2722 4.07175 65.0758C6.57874 65.0758 8.95094 65.0758 11.3231 65.0758C13.318 65.0758 14.2345 64.1053 14.0727 62.1375C14.0188 61.3287 13.8571 60.547 13.8032 59.7383C13.6954 57.9322 14.3693 57.2043 16.1754 57.0156C17.4963 56.8809 18.8441 56.773 20.2189 56.6652C20.3537 55.1826 20.4346 53.8078 20.6233 52.433C20.8389 50.7347 21.5398 50.1686 23.2381 50.2764C23.9659 50.3303 24.7477 50.4382 25.7181 50.519Z" fill="url(#paint0_linear_862_8065)"/>
<path d="M58.5246 16.6882C58.4977 20.0308 55.6942 22.8074 52.4324 22.7265C49.1706 22.6456 46.4479 19.896 46.421 16.6612C46.394 13.3455 49.1706 10.6229 52.5132 10.6229C55.9098 10.6229 58.5516 13.2916 58.5246 16.6882ZM54.4811 16.6882C54.5081 15.5829 53.6993 14.7203 52.5941 14.6934C51.4619 14.6395 50.4915 15.529 50.4645 16.6343C50.4376 17.7125 51.4619 18.7099 52.5402 18.683C53.5915 18.656 54.4541 17.7664 54.4811 16.6882Z" fill="url(#paint1_linear_862_8065)"/>
<defs>
<linearGradient id="paint0_linear_862_8065" x1="0" y1="0.19043" x2="18.1407" y2="81.3313" gradientUnits="userSpaceOnUse">
<stop stop-color="#A0D256"/>
<stop offset="1" stop-color="#77AC28"/>
</linearGradient>
<linearGradient id="paint1_linear_862_8065" x1="0" y1="0.19043" x2="18.1407" y2="81.3313" gradientUnits="userSpaceOnUse">
<stop stop-color="#A0D256"/>
<stop offset="1" stop-color="#77AC28"/>
</linearGradient>
</defs>
</svg>
