<svg width="19" height="19" viewBox="0 0 19 19" fill="none" xmlns="http://www.w3.org/2000/svg">
<path d="M0 10.2132C0 9.73212 0 9.25944 0 8.77832C0.0253333 8.70235 0.0591111 8.62639 0.0675556 8.54198C0.439111 4.74367 3.08222 1.51088 6.73867 0.422035C7.40578 0.227899 8.09822 0.143492 8.78222 0C9.26356 0 9.73644 0 10.2178 0C10.4204 0.0337628 10.6231 0.0590848 10.8342 0.0928476C14.7102 0.793425 17.3196 2.99645 18.5693 6.73567C18.7889 7.39405 18.8649 8.09462 19 8.77832C19 9.25944 19 9.73212 19 10.2132C18.9747 10.2892 18.9409 10.3652 18.9324 10.4496C18.5609 14.2479 15.9178 17.4807 12.2613 18.5695C11.5942 18.7637 10.9018 18.8565 10.2178 19C9.73644 19 9.26356 19 8.78222 19C8.70622 18.9747 8.63022 18.9409 8.54578 18.9325C4.74578 18.5611 1.51156 15.9191 0.422222 12.2643C0.228 11.5891 0.143556 10.8969 0 10.2132ZM17.5476 9.49578C17.5476 5.08974 13.8911 1.44336 9.49156 1.4518C5.10044 1.46024 1.46933 5.08974 1.46089 9.4789C1.444 13.8765 5.092 17.5313 9.5 17.5398C13.8911 17.5398 17.5476 13.8934 17.5476 9.49578Z" fill="#3773A9"/>
<path d="M8.78222 8.69391C8.78222 7.71479 8.78222 6.79476 8.78222 5.88316C8.78222 5.34296 9.044 5.03909 9.5 5.03065C9.956 5.03065 10.2262 5.32608 10.2262 5.86628C10.2262 6.79476 10.2262 7.71479 10.2262 8.68547C11.1382 8.68547 11.9996 8.68547 12.8693 8.68547C13.0213 8.68547 13.1818 8.67703 13.3338 8.71079C13.7053 8.7952 13.9502 9.13283 13.9164 9.4789C13.8742 9.84185 13.5956 10.1204 13.2071 10.1204C12.388 10.1288 11.5773 10.1288 10.7582 10.1288C10.6062 10.1288 10.4542 10.1288 10.2262 10.1288C10.2262 10.5424 10.2262 10.9307 10.2262 11.319C10.2262 11.8845 10.2262 12.4416 10.2262 13.0071C10.2262 13.4882 9.93067 13.8259 9.51689 13.8259C9.10311 13.8343 8.79067 13.4967 8.79067 13.0155C8.78222 12.0786 8.79067 11.1333 8.79067 10.1288C8.33467 10.1288 7.904 10.1288 7.47333 10.1288C6.94133 10.1288 6.40089 10.1373 5.86889 10.1288C5.41289 10.1204 5.10044 9.81653 5.10044 9.41137C5.10044 9.00622 5.41289 8.69391 5.87733 8.68547C6.69644 8.66859 7.50711 8.67703 8.32622 8.67703C8.45289 8.69391 8.588 8.69391 8.78222 8.69391Z" fill="#3773A9"/>
</svg>
