<svg width="10" height="10" viewBox="0 0 10 10" fill="none" xmlns="http://www.w3.org/2000/svg">
<path fill-rule="evenodd" clip-rule="evenodd" d="M4.50394 0.0913446C3.31925 0.37765 2.47206 1.5036 2.47206 2.79183C2.47206 3.96362 3.14337 4.97397 4.18831 5.375C4.52731 5.50511 5.26534 5.55109 5.63966 5.4655C6.53145 5.2615 7.30639 4.48456 7.57301 3.5272C7.69087 3.10382 7.68355 2.44424 7.55608 2.00743C7.44049 1.61126 7.19636 1.15896 6.95071 0.88589C6.70853 0.616646 6.22237 0.292493 5.87517 0.168853C5.49727 0.0342306 4.88359 -0.000429951 4.50394 0.0913446ZM2.92155 5.2894C2.56874 5.46305 2.13775 5.78362 1.80154 6.12233C1.06425 6.8652 0.60155 7.90536 0.516744 9.01063C0.485817 9.41332 0.488599 9.43033 0.604703 9.55309L0.724563 9.67982H5.06415H9.40374L9.5236 9.55309C9.63938 9.43067 9.64239 9.41239 9.61221 9.01906C9.52707 7.90983 9.06437 6.86761 8.32449 6.11865C8.01081 5.80112 7.49159 5.42196 7.15459 5.26435L6.95335 5.17022L6.6572 5.38019C6.49436 5.49565 6.18402 5.65316 5.96762 5.73018C5.62956 5.85049 5.50242 5.8702 5.06415 5.8702C4.62588 5.8702 4.49874 5.85049 4.16068 5.73018C3.94428 5.65316 3.63376 5.4955 3.47059 5.37985C3.30747 5.26415 3.17152 5.16973 3.16855 5.17002C3.16554 5.17027 3.05439 5.224 2.92155 5.2894Z" fill="#3773A9"/>
</svg>
