<svg width="6" height="11" viewBox="0 0 6 11" fill="none" xmlns="http://www.w3.org/2000/svg">
<g clip-path="url(#clip0_1325_8256)">
<path d="M1.97548 5.51271C3.1424 6.83639 4.30933 8.1517 5.46706 9.46701C5.98161 10.0451 6.01836 10.4891 5.57732 10.8158C5.12709 11.1509 4.65848 11.042 4.15312 10.464C2.86675 9.00623 1.58038 7.55688 0.294012 6.09915C-0.0918988 5.65513 -0.0918989 5.33677 0.312389 4.90113C1.65389 3.40989 3.00458 1.92703 4.36446 0.452539C4.81469 -0.0417489 5.2741 -0.125527 5.70596 0.184451C6.11943 0.494428 6.11024 0.97196 5.68758 1.43274C4.52066 2.69778 3.37211 3.96282 2.21438 5.23624C2.13168 5.32002 2.06737 5.4038 1.97548 5.51271Z" fill="#243D4C"/>
</g>
<defs>
<clipPath id="clip0_1325_8256">
<rect width="6" height="11" fill="white"/>
</clipPath>
</defs>
</svg>
