<svg width="16" height="17" viewBox="0 0 16 17" fill="none" xmlns="http://www.w3.org/2000/svg">
<path fill-rule="evenodd" clip-rule="evenodd" d="M4.08787 0.114656C4.03167 0.173555 3.98554 0.553501 3.98554 0.959235V1.6967H2.87667C1.58796 1.6967 1.04593 1.9503 0.698354 2.71584C0.503762 3.14461 0.477923 4.03817 0.513543 9.10503L0.555001 14.9956L1.10024 15.5179L1.64562 16.04H8H14.3544L14.8998 15.5179L15.445 14.9956L15.4865 9.10503C15.5221 4.03817 15.4962 3.14461 15.3016 2.71584C14.9481 1.93702 14.4172 1.6967 13.0503 1.6967H11.8685V0.929022C11.8685 0.384433 11.8042 0.135408 11.6476 0.0726941C11.2654 -0.0806576 10.9926 0.317446 10.9926 1.02866V1.6967H7.86161H4.73077L4.68654 0.896979C4.65486 0.321261 4.5791 0.0847486 4.41633 0.0525524C4.29195 0.027833 4.14422 0.0557567 4.08787 0.114656ZM14.6421 10.1915C14.6421 14.0483 14.6135 14.5994 14.4005 14.8454C14.1738 15.1074 13.782 15.1245 8.0254 15.1245C2.52282 15.1245 1.8643 15.0986 1.62489 14.872C1.37804 14.6385 1.35789 14.2883 1.35789 10.218V5.81659H8H14.6421V10.1915ZM3.46497 7.54252C3.42191 7.66002 3.40644 8.19515 3.43067 8.7318L3.47461 9.70761H4.56946H5.66431V8.56319V7.41877L4.60391 7.37391C3.79985 7.33989 3.52439 7.38063 3.46497 7.54252ZM6.90515 8.56319V9.7839H8H9.09485V8.56319V7.34248H8H6.90515V8.56319ZM10.3236 7.54924C10.2818 7.66307 10.2675 8.19515 10.2917 8.7318L10.3357 9.70761L11.467 9.75216L12.5984 9.79672V8.5696V7.34248H11.499C10.7085 7.34248 10.3782 7.40062 10.3236 7.54924ZM3.40162 12.149V13.2934H4.56946H5.7373V12.149V11.0046H4.56946H3.40162V12.149ZM6.90515 12.149V13.2934H8H9.09485V12.149V11.0046H8H6.90515V12.149Z" fill="#3773A9"/>
</svg>
