<svg width="18" height="18" viewBox="0 0 18 18" fill="none" xmlns="http://www.w3.org/2000/svg">
<path d="M3.70406 1.40557C3.70406 1.11746 3.68999 0.885561 3.71109 0.653664C3.74625 0.260141 4.03456 0.000135391 4.40022 0.000135391C4.76587 0.000135391 5.05418 0.267168 5.08231 0.660691C5.10341 0.892588 5.08934 1.12449 5.08934 1.40557C5.64486 1.40557 6.17226 1.40557 6.69262 1.40557C7.20595 1.40557 7.71927 1.40557 8.26776 1.40557C8.26776 1.13151 8.2537 0.899615 8.26776 0.667718C8.30292 0.267169 8.57717 0.00716258 8.94986 0.000135391C9.32958 -0.0068918 9.61789 0.260141 9.65305 0.681773C9.67415 0.91367 9.65305 1.14557 9.65305 1.39152C10.743 1.39152 11.7767 1.39152 12.8596 1.39152C12.8596 1.16665 12.8526 0.948806 12.8596 0.730963C12.8737 0.309332 13.162 0.00716258 13.5558 0.000135391C13.9495 0.000135391 14.2449 0.302304 14.2589 0.723936C14.266 0.934751 14.2589 1.14557 14.2589 1.40557C14.5473 1.40557 14.8215 1.40557 15.1028 1.40557C16.7623 1.4126 17.9859 2.63533 17.9859 4.28672C17.9859 5.53756 17.9859 6.79543 17.9859 8.04627C17.9859 8.59439 17.7327 8.91764 17.2967 8.91764C16.8467 8.92466 16.5865 8.59439 16.5865 8.02518C16.5865 6.80948 16.5865 5.58675 16.5865 4.37105C16.5865 3.38021 16.0099 2.80398 15.0184 2.80398C14.7863 2.80398 14.5543 2.80398 14.266 2.80398C14.266 3.03588 14.273 3.25372 14.266 3.47157C14.2519 3.90022 13.9706 4.20239 13.5769 4.20942C13.169 4.21645 12.8737 3.90725 12.8596 3.46454C12.8526 3.25372 12.8596 3.04994 12.8596 2.82506C11.7907 2.82506 10.75 2.82506 9.65305 2.82506C9.65305 3.04291 9.66008 3.26075 9.65305 3.47859C9.62492 3.92131 9.35068 4.20942 8.96392 4.20942C8.57014 4.20942 8.28886 3.92833 8.26073 3.48562C8.24667 3.2748 8.26073 3.06399 8.26073 2.83209C7.19891 2.83209 6.16522 2.83209 5.08231 2.83209C5.08231 3.07102 5.09637 3.30291 5.08231 3.53481C5.04715 3.94941 4.75884 4.22348 4.37912 4.20942C4.01346 4.20239 3.73218 3.94239 3.70406 3.54184C3.68296 3.30994 3.70406 3.07804 3.70406 2.82506C3.30324 2.82506 2.93758 2.7829 2.58598 2.83209C1.89686 2.9375 1.41166 3.51373 1.41166 4.20942C1.40462 7.86356 1.40462 11.5177 1.41166 15.1718C1.41166 16.001 2.03046 16.5773 2.88836 16.5843C4.62524 16.5913 6.35509 16.5843 8.09197 16.5843C8.5842 16.5843 8.87954 16.8513 8.88657 17.28C8.88657 17.6665 8.61233 17.9827 8.21151 17.9827C6.33399 17.9897 4.4635 18.0249 2.58598 17.9687C1.15851 17.9265 0.00527393 16.6546 0.00527393 15.221C-0.00175798 11.5318 -0.00175798 7.84248 0.00527393 4.1532C0.0123058 2.65641 1.27102 1.41963 2.77585 1.40557C3.06415 1.40557 3.35246 1.40557 3.70406 1.40557Z" fill="#516F8B"/>
<path d="M13.7737 9.48684C16.1154 9.49387 18.014 11.4263 17.9999 13.7805C17.9859 16.1065 16.0591 17.9968 13.7245 17.9897C11.3829 17.9827 9.48428 16.0502 9.49835 13.6961C9.50538 11.3701 11.4321 9.47981 13.7737 9.48684ZM16.5935 13.7453C16.6006 12.1853 15.3208 10.8993 13.7737 10.8853C12.1986 10.8782 10.8977 12.1572 10.8977 13.7242C10.8907 15.2843 12.1705 16.5702 13.7175 16.5843C15.2926 16.5913 16.5935 15.3124 16.5935 13.7453Z" fill="#516F8B"/>
<path d="M8.15525 7.36463C8.16228 7.75112 7.83882 8.0814 7.45206 8.0814C7.07937 8.0814 6.76294 7.76518 6.7559 7.39274C6.74887 7.00624 7.07234 6.67596 7.45909 6.67596C7.83179 6.67596 8.14822 6.99219 8.15525 7.36463Z" fill="#516F8B"/>
<path d="M14.273 7.36463C14.28 7.75112 13.9566 8.0814 13.5628 8.07438C13.1901 8.06735 12.8737 7.75815 12.8666 7.38571C12.8596 6.99921 13.1831 6.66894 13.5769 6.67596C13.9495 6.68299 14.266 6.99219 14.273 7.36463Z" fill="#516F8B"/>
<path d="M7.44503 14.188C7.05828 14.181 6.73481 13.8507 6.74887 13.4642C6.76294 13.0918 7.0864 12.7826 7.45909 12.7896C7.84585 12.7966 8.16932 13.1269 8.15525 13.5134C8.14119 13.8929 7.81772 14.1951 7.44503 14.188Z" fill="#516F8B"/>
<path d="M5.08231 7.42787C5.06121 7.80734 4.73775 8.09546 4.35802 8.0814C3.96424 8.06032 3.67593 7.73004 3.69702 7.32949C3.71812 6.95002 4.04159 6.66191 4.42131 6.67596C4.82213 6.69705 5.11044 7.02732 5.08231 7.42787Z" fill="#516F8B"/>
<path d="M11.2071 7.37868C11.2071 7.76518 10.9047 8.06735 10.525 8.07438C10.1312 8.0814 9.81478 7.76518 9.82182 7.37166C9.82182 6.97111 10.1453 6.66191 10.5391 6.67596C10.9118 6.69002 11.2071 6.99921 11.2071 7.37868Z" fill="#516F8B"/>
<path d="M7.45206 9.73982C7.85288 9.73982 8.16228 10.056 8.15525 10.4496C8.14822 10.829 7.83882 11.1242 7.45206 11.1242C7.05124 11.1242 6.74184 10.808 6.74887 10.4144C6.76294 10.035 7.07234 9.73982 7.45206 9.73982Z" fill="#516F8B"/>
<path d="M4.38615 14.188C3.99236 14.181 3.68999 13.8577 3.70406 13.4572C3.71812 13.0777 4.02752 12.7756 4.40725 12.7826C4.80103 12.7896 5.10341 13.1129 5.08934 13.5134C5.07528 13.8999 4.76587 14.1951 4.38615 14.188Z" fill="#516F8B"/>
<path d="M5.08231 10.4777C5.06121 10.8642 4.75181 11.1453 4.35802 11.1242C3.95721 11.1101 3.6689 10.7869 3.70406 10.3723C3.73218 9.98577 4.04862 9.71874 4.44241 9.73982C4.83619 9.76793 5.10341 10.0771 5.08231 10.4777Z" fill="#516F8B"/>
<path d="M14.4347 13.0004C14.6457 13.0285 14.7863 13.0356 14.9199 13.0637C15.2434 13.1269 15.4684 13.408 15.4684 13.7383C15.4684 14.0686 15.2434 14.3778 14.9129 14.4059C14.484 14.441 14.048 14.441 13.619 14.4129C13.2885 14.3918 13.0776 14.1599 13.0635 13.8296C13.0424 13.2956 13.0354 12.7545 13.0635 12.2204C13.0846 11.848 13.387 11.602 13.7386 11.595C14.0972 11.595 14.3855 11.8409 14.4207 12.2134C14.4558 12.4664 14.4347 12.7193 14.4347 13.0004Z" fill="#516F8B"/>
</svg>
