<svg width="20" height="20" viewBox="0 0 20 20" fill="none" xmlns="http://www.w3.org/2000/svg">
<path d="M17.2076 12.4037C16.7256 11.945 16.0855 11.6897 15.4203 11.6906C14.755 11.6915 14.1157 11.9487 13.635 12.4087L12.0441 13.7495C10.7455 13.2121 9.56589 12.4233 8.57293 11.4285C7.57997 10.4338 6.79325 9.25264 6.25794 7.95293L7.59346 6.36665C8.05216 5.88491 8.30843 5.24541 8.30936 4.58015C8.31029 3.9149 8.05581 3.27468 7.59847 2.79166C7.59847 2.79166 6.0526 0.785428 6.02672 0.759546C5.55049 0.280111 4.90479 0.00733171 4.22913 0.000145645C3.55348 -0.00704042 2.90213 0.251944 2.4158 0.721141L1.4559 1.55603C-4.98716 8.41045 11.6393 25.0481 18.4838 18.5042L19.2451 17.6276C19.7285 17.1425 20 16.4854 20 15.8004C20 15.1155 19.7285 14.4584 19.2451 13.9733C19.2175 13.9508 17.2076 12.4045 17.2076 12.4045V12.4037Z" fill="#3773A9"/>
</svg>
