<svg width="82" height="83" viewBox="0 0 82 83" fill="none" xmlns="http://www.w3.org/2000/svg">
<path d="M62.0305 73.0229C61.8719 74.4825 61.8719 75.6565 61.618 76.767C60.8248 80.0668 58.0961 82.1927 54.7328 82.1927C38.8682 82.2244 23.0354 82.2244 7.17079 82.1927C3.14119 82.1609 0 79.0515 0 75.0219C0 56.5872 0 38.1209 0.0634583 19.6862C0.0634583 18.8613 0.507667 17.8142 1.11052 17.2113C6.092 12.1029 11.1369 7.05801 16.2453 2.07653C16.8799 1.47368 17.9904 1.02947 18.8788 1.02947C30.7773 0.934285 42.6757 0.966014 54.5424 0.966014C58.7624 0.966014 61.8401 4.04374 61.8401 8.26372C61.8719 17.5286 61.8401 26.7618 61.8719 36.0267C61.8719 36.8517 62.1257 37.8036 62.5382 38.5333C65.1717 43.261 65.7745 48.179 64.1564 53.3191C63.8391 54.3027 63.9343 54.9056 64.6958 55.6354C69.5503 60.4265 74.3731 65.2493 79.1643 70.1039C81.3218 72.2932 81.766 75.3074 80.5286 78.0044C79.3229 80.6697 76.5942 82.3196 73.6434 82.1609C71.7714 82.0657 70.1849 81.2725 68.884 79.9399C66.6947 77.6871 64.4419 75.4661 62.0305 73.0229ZM28.4611 46.9733C23.1306 46.9733 17.8952 46.9733 12.6917 46.9733C10.312 46.9733 9.51875 46.2118 9.51875 43.8956C9.51875 40.1515 9.51875 36.3758 9.51875 32.6317C9.51875 30.3155 10.312 29.554 12.6917 29.554C24.1142 29.554 35.5367 29.554 46.9592 29.554C47.7524 29.554 48.5773 29.554 49.3071 29.7444C51.9089 30.5059 54.479 31.3625 57.1125 32.1875C57.1125 31.9654 57.1125 31.4895 57.1125 31.0453C57.1125 23.6841 57.1125 16.3547 57.1125 8.99349C57.1125 6.45516 56.351 5.72539 53.7809 5.72539C43.2468 5.72539 32.7445 5.72539 22.2104 5.72539C21.7027 5.72539 21.1951 5.75712 20.5922 5.78885C20.5922 10.1992 20.5922 14.4826 20.5922 18.7661C20.5922 20.7015 19.7355 21.5582 17.8001 21.59C16.1819 21.59 14.532 21.59 12.882 21.59C10.2168 21.59 7.51981 21.59 4.72764 21.59C4.72764 22.3197 4.72764 22.8274 4.72764 23.3351C4.72764 40.2467 4.72764 57.1584 4.72764 74.1017C4.72764 76.7352 5.45742 77.4333 8.15439 77.4333C22.5277 77.4333 36.901 77.4333 51.306 77.4333C52.1945 77.4333 53.1146 77.4333 54.003 77.4333C56.3193 77.4333 57.1125 76.6083 57.1125 74.2604C57.1125 73.4037 56.9856 72.547 57.1442 71.722C57.5884 69.0251 56.6366 66.9944 54.4472 65.5031C53.9713 65.1858 53.2098 64.9637 52.7021 65.0906C44.2939 67.629 36.1712 64.7734 31.4119 57.4439C30.9042 56.6507 30.3648 56.4286 29.5081 56.4286C23.7969 56.4603 18.0856 56.4603 12.3744 56.4286C10.5658 56.4286 9.48702 55.4767 9.51875 53.9854C9.55048 52.5894 10.6293 51.7009 12.3744 51.7009C17.2924 51.7009 22.2104 51.7009 27.1284 51.7009C27.6996 51.7009 28.2707 51.7009 28.9053 51.7009C28.7466 50.1145 28.6197 48.6549 28.4611 46.9733ZM46.7053 61.2831C54.2569 61.3149 60.2854 55.3815 60.2854 47.9252C60.3171 40.4371 54.3203 34.3451 46.8957 34.3134C39.5028 34.2816 33.3473 40.4371 33.3473 47.7983C33.3156 55.1594 39.3759 61.2514 46.7053 61.2831ZM14.3416 42.2139C19.1961 42.2139 23.9555 42.2139 28.7149 42.1822C29.0639 42.1822 29.5398 41.8014 29.7302 41.4841C30.111 40.8496 30.2696 40.0881 30.6504 39.4852C31.7926 37.7401 32.9983 36.0585 34.1723 34.3768C27.6044 34.3768 21.0047 34.3768 14.3416 34.3768C14.3416 36.9469 14.3416 39.4852 14.3416 42.2139ZM61.4277 59.0304C60.3171 60.1726 59.2701 61.2831 58.1913 62.4254C62.8872 67.153 67.6466 71.9759 72.4694 76.7352C73.4847 77.7188 74.7856 77.6237 75.7375 76.7035C76.7211 75.7516 76.7846 74.3873 75.7375 73.3402C70.9781 68.5491 66.187 63.8215 61.4277 59.0304ZM8.40823 16.7671C10.9466 16.7671 13.3262 16.7671 15.7377 16.7671C15.7377 14.2605 15.7377 11.8808 15.7377 9.4377C13.2945 11.8808 10.9148 14.2605 8.40823 16.7671Z" fill="url(#paint0_linear_862_8053)"/>
<path d="M38.7096 15.2441C35.2194 15.2441 31.7292 15.2441 28.239 15.2441C26.4304 15.2441 25.3516 14.2605 25.3833 12.801C25.4468 11.4049 26.4938 10.5165 28.239 10.5165C35.3146 10.5165 42.4219 10.5165 49.4975 10.5165C51.2426 10.5165 52.2897 11.4049 52.3531 12.801C52.4166 14.2923 51.306 15.2441 49.4975 15.2441C45.9121 15.2441 42.295 15.2441 38.7096 15.2441Z" fill="url(#paint1_linear_862_8053)"/>
<path d="M38.8365 24.7629C35.2828 24.7629 31.7609 24.7629 28.2072 24.7629C26.4938 24.7629 25.4151 23.8427 25.3833 22.4467C25.3516 20.9554 26.4621 20.0035 28.2707 20.0035C35.3463 20.0035 42.4536 20.0035 49.5292 20.0035C51.2426 20.0035 52.3214 20.9237 52.3531 22.3197C52.3848 23.7793 51.2743 24.7312 49.4658 24.7312C45.9121 24.7629 42.3902 24.7629 38.8365 24.7629Z" fill="url(#paint2_linear_862_8053)"/>
<path d="M21.4172 66.0108C18.4029 66.0108 15.3886 66.0108 12.3744 66.0108C10.6293 66.0108 9.58221 65.1224 9.51875 63.7263C9.45529 62.235 10.5658 61.2831 12.3744 61.2831C18.4029 61.2831 24.4315 61.2831 30.46 61.2831C32.2051 61.2831 33.2522 62.1716 33.3156 63.5676C33.3473 65.0272 32.2686 66.0108 30.46 66.0108C27.4457 66.0108 24.4315 66.0108 21.4172 66.0108Z" fill="url(#paint3_linear_862_8053)"/>
<defs>
<linearGradient id="paint0_linear_862_8053" x1="0" y1="0.960938" x2="21.3724" y2="96.4688" gradientUnits="userSpaceOnUse">
<stop stop-color="#A0D256"/>
<stop offset="1" stop-color="#77AC28"/>
</linearGradient>
<linearGradient id="paint1_linear_862_8053" x1="0" y1="0.960938" x2="21.3724" y2="96.4688" gradientUnits="userSpaceOnUse">
<stop stop-color="#A0D256"/>
<stop offset="1" stop-color="#77AC28"/>
</linearGradient>
<linearGradient id="paint2_linear_862_8053" x1="0" y1="0.960938" x2="21.3724" y2="96.4688" gradientUnits="userSpaceOnUse">
<stop stop-color="#A0D256"/>
<stop offset="1" stop-color="#77AC28"/>
</linearGradient>
<linearGradient id="paint3_linear_862_8053" x1="0" y1="0.960938" x2="21.3724" y2="96.4688" gradientUnits="userSpaceOnUse">
<stop stop-color="#A0D256"/>
<stop offset="1" stop-color="#77AC28"/>
</linearGradient>
</defs>
</svg>
