<svg width="32" height="33" viewBox="0 0 32 33" fill="none" xmlns="http://www.w3.org/2000/svg">
<path d="M27 0.637695H5C2.23858 0.637695 0 2.87627 0 5.6377V27.6377C0 30.3991 2.23858 32.6377 5 32.6377H27C29.7614 32.6377 32 30.3991 32 27.6377V5.6377C32 2.87627 29.7614 0.637695 27 0.637695Z" fill="#1877F2"/>
<path d="M24 16.6377C24 12.2377 20.4 8.6377 16 8.6377C11.6 8.6377 8 12.2377 8 16.6377C8 20.6377 10.9 23.9377 14.7 24.5377V18.9377H12.7V16.6377H14.7V14.8377C14.7 12.8377 15.9 11.7377 17.7 11.7377C18.6 11.7377 19.5 11.9377 19.5 11.9377V13.9377H18.5C17.5 13.9377 17.2 14.5377 17.2 15.1377V16.6377H19.4L19 18.9377H17.1V24.6377C21.1 24.0377 24 20.6377 24 16.6377Z" fill="white"/>
</svg>
