<svg width="69" height="69" viewBox="0 0 69 69" fill="none" xmlns="http://www.w3.org/2000/svg">
<circle opacity="0.8" cx="34.5" cy="34.5" r="34.5" fill="url(#paint0_linear_1525_9081)"/>
<path d="M33.75 46C33.75 46.6904 34.3096 47.25 35 47.25C35.6904 47.25 36.25 46.6904 36.25 46L33.75 46ZM35.8839 25.1161C35.3957 24.628 34.6043 24.628 34.1161 25.1161L26.1612 33.0711C25.673 33.5592 25.673 34.3507 26.1612 34.8388C26.6493 35.327 27.4408 35.327 27.9289 34.8388L35 27.7678L42.0711 34.8388C42.5592 35.327 43.3507 35.327 43.8388 34.8388C44.327 34.3507 44.327 33.5592 43.8388 33.0711L35.8839 25.1161ZM36.25 46L36.25 26L33.75 26L33.75 46L36.25 46Z" fill="white"/>
<defs>
<linearGradient id="paint0_linear_1525_9081" x1="34.5" y1="0" x2="34.5" y2="69" gradientUnits="userSpaceOnUse">
<stop stop-color="#5693CA"/>
<stop offset="1" stop-color="#3975AB"/>
</linearGradient>
</defs>
</svg>
