<svg width="32" height="33" viewBox="0 0 32 33" fill="none" xmlns="http://www.w3.org/2000/svg">
<path d="M27 0.637695H5C2.23858 0.637695 0 2.87627 0 5.6377V27.6377C0 30.3991 2.23858 32.6377 5 32.6377H27C29.7614 32.6377 32 30.3991 32 27.6377V5.6377C32 2.87627 29.7614 0.637695 27 0.637695Z" fill="#F00073"/>
<path d="M16 9.83789C18.2 9.83789 18.5 9.83789 19.4 9.83789C20.2 9.83789 20.6 10.0379 20.9 10.1379C21.3 10.3379 21.6 10.4379 21.9 10.7379C22.2 11.0379 22.4 11.3379 22.5 11.7379C22.6 12.0379 22.7 12.4379 22.8 13.2379C22.8 14.1379 22.8 14.3379 22.8 16.6379C22.8 18.9379 22.8 19.1379 22.8 20.0379C22.8 20.8379 22.6 21.2379 22.5 21.5379C22.3 21.9379 22.2 22.2379 21.9 22.5379C21.6 22.8379 21.3 23.0379 20.9 23.1379C20.6 23.2379 20.2 23.3379 19.4 23.4379C18.5 23.4379 18.3 23.4379 16 23.4379C13.7 23.4379 13.5 23.4379 12.6 23.4379C11.8 23.4379 11.4 23.2379 11.1 23.1379C10.7 22.9379 10.4 22.8379 10.1 22.5379C9.79995 22.2379 9.59995 21.9379 9.49995 21.5379C9.39995 21.2379 9.29995 20.8379 9.19995 20.0379C9.19995 19.1379 9.19995 18.9379 9.19995 16.6379C9.19995 14.3379 9.19995 14.1379 9.19995 13.2379C9.19995 12.4379 9.39995 12.0379 9.49995 11.7379C9.69995 11.3379 9.79995 11.0379 10.1 10.7379C10.4 10.4379 10.7 10.2379 11.1 10.1379C11.4 10.0379 11.8 9.93789 12.6 9.83789C13.5 9.83789 13.8 9.83789 16 9.83789ZM16 8.33789C13.7 8.33789 13.5 8.33789 12.6 8.33789C11.7 8.33789 11.1 8.53789 10.6 8.73789C10.1 8.93789 9.59995 9.23789 9.09995 9.73789C8.59995 10.2379 8.39995 10.6379 8.09995 11.2379C7.89995 11.7379 7.79995 12.3379 7.69995 13.2379C7.69995 14.1379 7.69995 14.4379 7.69995 16.6379C7.69995 18.9379 7.69995 19.1379 7.69995 20.0379C7.69995 20.9379 7.89995 21.5379 8.09995 22.0379C8.29995 22.5379 8.59995 23.0379 9.09995 23.5379C9.59995 24.0379 9.99995 24.2379 10.6 24.5379C11.1 24.7379 11.7 24.8379 12.6 24.9379C13.5 24.9379 13.8 24.9379 16 24.9379C18.2 24.9379 18.5 24.9379 19.4 24.9379C20.3 24.9379 20.9 24.7379 21.4 24.5379C21.9 24.3379 22.4 24.0379 22.9 23.5379C23.4 23.0379 23.6 22.6379 23.9 22.0379C24.1 21.5379 24.1999 20.9379 24.2999 20.0379C24.2999 19.1379 24.2999 18.8379 24.2999 16.6379C24.2999 14.4379 24.2999 14.1379 24.2999 13.2379C24.2999 12.3379 24.1 11.7379 23.9 11.2379C23.7 10.7379 23.4 10.2379 22.9 9.73789C22.4 9.23789 22 9.03789 21.4 8.73789C20.9 8.53789 20.3 8.43789 19.4 8.33789C18.5 8.33789 18.3 8.33789 16 8.33789Z" fill="white"/>
<path d="M16 12.3379C13.6 12.3379 11.7 14.2379 11.7 16.6379C11.7 19.0379 13.6 20.9379 16 20.9379C18.4 20.9379 20.3 19.0379 20.3 16.6379C20.3 14.2379 18.4 12.3379 16 12.3379ZM16 19.4379C14.5 19.4379 13.2 18.2379 13.2 16.6379C13.2 15.1379 14.4 13.8379 16 13.8379C17.5 13.8379 18.8 15.0379 18.8 16.6379C18.8 18.1379 17.5 19.4379 16 19.4379Z" fill="white"/>
<path d="M20.4 13.2379C20.9522 13.2379 21.4 12.7902 21.4 12.2379C21.4 11.6856 20.9522 11.2379 20.4 11.2379C19.8477 11.2379 19.4 11.6856 19.4 12.2379C19.4 12.7902 19.8477 13.2379 20.4 13.2379Z" fill="white"/>
</svg>
