<svg width="32" height="33" viewBox="0 0 32 33" fill="none" xmlns="http://www.w3.org/2000/svg">
<path d="M27 0.637695H5C2.23858 0.637695 0 2.87627 0 5.6377V27.6377C0 30.3991 2.23858 32.6377 5 32.6377H27C29.7614 32.6377 32 30.3991 32 27.6377V5.6377C32 2.87627 29.7614 0.637695 27 0.637695Z" fill="#2867B2"/>
<path d="M11.6 24.6377H8.2V13.9377H11.6V24.6377ZM9.9 12.4377C8.8 12.4377 8 11.6377 8 10.5377C8 9.43769 8.9 8.6377 9.9 8.6377C11 8.6377 11.8 9.43769 11.8 10.5377C11.8 11.6377 11 12.4377 9.9 12.4377ZM24 24.6377H20.6V18.8377C20.6 17.1377 19.9 16.6377 18.9 16.6377C17.9 16.6377 16.9 17.4377 16.9 18.9377V24.6377H13.5V13.9377H16.7V15.4377C17 14.7377 18.2 13.6377 19.9 13.6377C21.8 13.6377 23.8 14.7377 23.8 18.0377V24.6377H24Z" fill="white"/>
</svg>
