<svg width="16" height="22" viewBox="0 0 16 22" fill="none" xmlns="http://www.w3.org/2000/svg">
<g clip-path="url(#clip0_1325_8468)">
<path d="M0 8.87506C0 4.14544 3.00561 0.58321 7.04033 0.0596047C11.4262 -0.506919 15.4201 2.78064 15.9428 7.36433C16.196 9.63042 15.6651 11.6733 14.3747 13.4931C12.4553 16.2141 10.5197 18.918 8.59214 21.6304C8.24911 22.1197 7.76723 22.1111 7.41603 21.6133C5.49668 18.9094 3.57734 16.2055 1.64982 13.5102C0.563553 11.9995 0.0163349 10.2999 0 8.87506ZM8.01225 11.1841C9.47422 11.1755 10.6503 9.93943 10.6585 8.40295C10.6585 6.86647 9.49056 5.62184 8.02042 5.61325C6.55028 5.60467 5.3415 6.87506 5.35784 8.42012C5.366 9.9566 6.55028 11.1927 8.01225 11.1841Z" fill="#3773A9"/>
</g>
<defs>
<clipPath id="clip0_1325_8468">
<rect width="16" height="22" fill="white"/>
</clipPath>
</defs>
</svg>
