<svg width="70" height="76" viewBox="0 0 70 76" fill="none" xmlns="http://www.w3.org/2000/svg">
<path d="M40.7289 62.6859C40.7289 63.9173 40.7289 64.9728 40.7289 66.1163C43.0029 66.4974 45.1312 67.2304 46.3557 69.3121C47.0262 70.4556 47.4927 71.775 47.7551 73.0944C48.0175 74.2965 47.3178 75.0295 46.0058 75.0295C37.6093 75.0295 29.1837 75.0295 20.7872 75.0295C19.3003 75.0295 18.688 74.2085 18.9796 72.5666C19.5335 69.6053 21.2245 67.5236 24.1108 66.5854C24.6939 66.3802 25.3061 66.2922 25.9767 66.1163C25.9767 65.0315 25.9767 63.9759 25.9767 62.7152C25.4227 62.7152 24.898 62.7152 24.3732 62.7152C18.7755 62.7152 13.207 62.7152 7.60933 62.7152C3.11953 62.6859 0 59.5193 0 54.9161C0 42.895 0 30.8739 0 18.8528C0 14.191 3.11953 11.0831 7.78426 11.0831C12.5364 11.0831 17.3178 11.0537 22.07 11.1124C22.9738 11.1124 23.4111 10.8192 23.8484 10.0275C27.5219 3.51855 33.1195 -0.0291395 40.5831 0.000180287C47.9883 0.0295001 53.5277 3.54787 57.172 10.0275C57.6093 10.7899 58.0466 11.1124 58.9504 11.1124C63.7026 11.1124 66.7347 14.191 66.7347 18.9994C66.7347 24.9513 66.7639 30.9326 66.7055 36.8845C66.7055 38.0279 67.0845 38.7902 67.9009 39.5232C69.5627 41.0479 70.5539 42.8657 69.6501 45.1233C69.242 46.1202 68.5131 47.0877 67.6676 47.7035C66.9388 48.2605 66.7055 48.759 66.7347 49.6092C66.793 51.4564 66.7638 53.3329 66.7347 55.18C66.7055 59.4607 63.5277 62.6566 59.242 62.6566C53.1487 62.6859 47.0262 62.6859 40.7289 62.6859ZM64.1983 49.7558C63.7609 49.0815 63.586 48.6124 63.2653 48.3192C62.4781 47.6155 61.516 47.1171 60.758 46.3548C57.4344 43.0709 54.1399 39.7578 50.8746 36.4153C50.2332 35.741 49.7376 35.653 48.8921 36.0635C39.7668 40.4908 29.2128 37.2656 24.1691 28.499C23.586 27.4728 22.9446 27.2089 21.8659 27.2383C17.6968 27.2969 13.4985 27.2676 9.32945 27.2676C8.33819 27.2676 7.55102 27.0037 7.55102 25.8602C7.55102 24.7168 8.36735 24.3942 9.30029 24.3649C9.97085 24.3356 10.6706 24.3649 11.3411 24.3649C14.9271 24.3649 18.5131 24.3649 21.8659 24.3649C21.8659 20.8465 21.8659 17.5041 21.8659 14.0444C17.3761 14.0444 12.7697 14.0444 8.16327 14.0444C4.54811 14.0444 2.91545 15.6863 2.8863 19.2926C2.8863 28.9095 2.8863 38.5557 2.8863 48.1726C2.8863 48.7003 2.8863 49.1988 2.8863 49.7558C23.2945 49.7558 43.4985 49.7558 64.1983 49.7558ZM2.91545 52.7758C2.91545 53.3035 2.91545 53.6847 2.91545 54.0659C2.8863 58.1999 4.43149 59.7539 8.48397 59.7539C25.1312 59.7539 41.8076 59.7539 58.4548 59.7539C59.1837 59.7539 59.9125 59.7539 60.6122 59.5487C63.2945 58.8157 64.4315 56.2942 63.6735 52.7465C43.4694 52.7758 23.2945 52.7758 2.91545 52.7758ZM56.5598 19.0287C56.5598 10.1741 49.3878 2.90284 40.5831 2.87352C31.8076 2.8442 24.519 10.0862 24.4898 18.9114C24.4315 27.8247 31.691 35.1546 40.5248 35.1546C49.3294 35.1253 56.5598 27.8833 56.5598 19.0287ZM58.9213 14.1616C59.8251 18.8235 59.9417 22.0193 58.2507 25.4498C56.9388 28.0885 57.551 29.6132 59.6502 31.2551C61.1079 32.3985 62.3032 33.8645 63.8484 35.4185C63.8484 29.3493 63.9359 23.6906 63.8192 18.0318C63.7318 15.5103 61.4869 13.8684 58.9213 14.1616ZM52.449 33.9232C56.035 37.5002 59.621 41.0772 63.207 44.6542C64.4315 45.8856 65.5394 46.0029 66.4723 45.0354C67.4053 44.0678 67.2595 43.0123 65.9767 41.7515C63.0612 38.8196 60.1458 35.8876 57.2303 32.9263C56.5889 32.2813 56.0058 31.5776 55.4811 30.9912C54.344 32.076 53.4402 32.9556 52.449 33.9232ZM44.6064 72.0389C43.7901 70.1624 42.5073 69.1949 40.7289 69.1655C35.8309 69.1069 30.9329 69.1069 26.035 69.1655C24.1983 69.1949 22.828 70.3383 22.3324 72.0389C29.7085 72.0389 37.0554 72.0389 44.6064 72.0389ZM37.6676 62.7445C34.7522 62.7445 31.9534 62.7445 29.0962 62.7445C29.0962 63.9173 29.0962 65.0021 29.0962 66.1163C31.9825 66.1163 34.7813 66.1163 37.6676 66.1163C37.6676 65.0021 37.6676 63.9466 37.6676 62.7445Z" fill="url(#paint0_linear_862_8061)"/>
<path d="M14.8688 41.3413C12.9738 41.3413 11.0787 41.3413 9.21283 41.3413C8.27988 41.3413 7.58017 41.0187 7.55102 39.9632C7.52187 38.9077 8.22157 38.4386 9.12536 38.4386C13.0029 38.4093 16.8805 38.4093 20.758 38.4386C21.691 38.4386 22.4198 38.937 22.3907 39.9339C22.3615 40.9015 21.691 41.3413 20.6997 41.3413C18.7464 41.3119 16.793 41.3413 14.8688 41.3413Z" fill="url(#paint1_linear_862_8061)"/>
<path d="M14.4898 34.3045C12.7405 34.3045 10.9913 34.3045 9.24198 34.3045C8.30904 34.3045 7.58017 34.0113 7.55102 32.9558C7.52187 31.8123 8.27988 31.4019 9.24198 31.4019C12.6822 31.3725 16.1224 31.3725 19.5627 31.4019C20.5248 31.4019 21.3411 31.7537 21.3411 32.8972C21.3411 34.0406 20.5539 34.3338 19.5627 34.3338C17.8717 34.2752 16.1808 34.3045 14.4898 34.3045Z" fill="url(#paint2_linear_862_8061)"/>
<path d="M26.7055 41.5172C26.3265 40.9894 25.7143 40.5203 25.6268 39.9632C25.4519 39.0543 26.1516 38.38 26.9971 38.5266C27.5219 38.6145 28.1924 39.3768 28.2799 39.9046C28.3382 40.3737 27.6968 40.9601 27.3469 41.5172C27.1137 41.5172 26.9096 41.5172 26.7055 41.5172Z" fill="url(#paint3_linear_862_8061)"/>
<path d="M40.4665 6.09888C47.5219 6.06956 53.3236 11.8456 53.3528 18.853C53.3819 26.0363 47.6676 31.871 40.6122 31.9003C33.4985 31.9296 27.7259 26.1243 27.7259 18.9996C27.6968 11.9335 33.4694 6.1282 40.4665 6.09888ZM40.4373 28.9683C45.8892 28.9976 50.4082 24.541 50.4373 19.0875C50.4665 13.6047 46.035 9.06018 40.6122 9.03086C35.1603 9.00154 30.6414 13.4581 30.6122 18.9116C30.5831 24.3944 35.0146 28.939 40.4373 28.9683Z" fill="url(#paint4_linear_862_8061)"/>
<path d="M40.3499 12.4613C44.1399 12.5786 46.8513 15.3053 46.9971 18.5305C47.0554 19.4687 46.8513 20.231 45.8309 20.4069C44.8397 20.5535 44.2857 19.9378 44.1691 18.9996C43.9067 16.8299 42.7405 15.5692 40.5539 15.3346C39.621 15.2173 38.863 14.6896 39.1254 13.722C39.3294 13.1063 40.1166 12.6958 40.3499 12.4613Z" fill="url(#paint5_linear_862_8061)"/>
<defs>
<linearGradient id="paint0_linear_862_8061" x1="39.0728" y1="12.4609" x2="41.1754" y2="21.8223" gradientUnits="userSpaceOnUse">
<stop stop-color="#A0D256"/>
<stop offset="1" stop-color="#77AC28"/>
</linearGradient>
<linearGradient id="paint1_linear_862_8061" x1="39.0728" y1="12.4609" x2="41.1754" y2="21.8223" gradientUnits="userSpaceOnUse">
<stop stop-color="#A0D256"/>
<stop offset="1" stop-color="#77AC28"/>
</linearGradient>
<linearGradient id="paint2_linear_862_8061" x1="39.0728" y1="12.4609" x2="41.1754" y2="21.8223" gradientUnits="userSpaceOnUse">
<stop stop-color="#A0D256"/>
<stop offset="1" stop-color="#77AC28"/>
</linearGradient>
<linearGradient id="paint3_linear_862_8061" x1="39.0728" y1="12.4609" x2="41.1754" y2="21.8223" gradientUnits="userSpaceOnUse">
<stop stop-color="#A0D256"/>
<stop offset="1" stop-color="#77AC28"/>
</linearGradient>
<linearGradient id="paint4_linear_862_8061" x1="39.0728" y1="12.4609" x2="41.1754" y2="21.8223" gradientUnits="userSpaceOnUse">
<stop stop-color="#A0D256"/>
<stop offset="1" stop-color="#77AC28"/>
</linearGradient>
<linearGradient id="paint5_linear_862_8061" x1="39.0728" y1="12.4609" x2="41.1754" y2="21.8223" gradientUnits="userSpaceOnUse">
<stop stop-color="#A0D256"/>
<stop offset="1" stop-color="#77AC28"/>
</linearGradient>
</defs>
</svg>
