<svg width="76" height="75" viewBox="0 0 76 75" fill="none" xmlns="http://www.w3.org/2000/svg">
<g clip-path="url(#clip0_862_8083)">
<path d="M38.0741 0C56.6215 0.17537 72.3794 13.3574 75.4657 31.4205C78.9378 51.8219 65.0495 71.0542 44.306 74.4739C35.8187 75.8768 27.8062 74.5031 20.1795 70.6742C19.5267 70.3527 18.577 70.265 17.8648 70.4988C13.4431 71.8433 9.02138 73.2463 4.62935 74.6785C3.29393 75.1169 2.01787 75.2338 0.919859 74.1524C-0.17815 73.0709 -0.089122 71.8433 0.356017 70.4988C1.81014 66.173 3.26426 61.818 4.59967 57.463C4.8074 56.7907 4.74805 55.8262 4.42162 55.1832C-7.44875 32.8527 5.51962 5.90413 30.6848 0.876851C33.1182 0.379969 35.611 0.292284 38.0741 0ZM7.62661 67.5468C10.9503 66.4945 14.0069 65.6469 16.9745 64.5362C18.9628 63.8055 20.595 64.0686 22.4052 65.0916C28.7855 68.7159 35.7297 69.9727 42.9706 68.7744C61.0136 65.8223 72.6762 49.5421 69.5306 31.8589C66.4443 14.585 48.6684 2.86438 31.3377 6.6933C9.88198 11.4283 -0.563936 34.7233 10.3568 53.4879C11.1877 54.8909 11.3955 56.1769 10.8019 57.7553C9.67425 60.8827 8.72462 64.0686 7.62661 67.5468Z" fill="url(#paint0_linear_862_8083)"/>
<path d="M26.8269 37.6165C26.8269 39.6625 25.2541 41.2116 23.1768 41.2116C21.0401 41.2116 19.4376 39.604 19.497 37.5288C19.5266 35.5121 21.1588 33.9922 23.2064 33.9922C25.2838 33.9922 26.8566 35.5705 26.8269 37.6165Z" fill="url(#paint1_linear_862_8083)"/>
<path d="M41.6651 37.558C41.6947 39.604 40.1219 41.1531 38.0743 41.2116C35.9376 41.2408 34.3054 39.6625 34.3351 37.558C34.3648 35.5121 35.9376 33.9922 38.0149 33.9922C40.0922 33.9922 41.6651 35.5121 41.6651 37.558Z" fill="url(#paint2_linear_862_8083)"/>
<path d="M52.7933 41.2121C50.7457 41.1829 49.1729 39.6046 49.2026 37.5586C49.2322 35.4834 50.8644 33.9051 53.0011 33.9927C55.0487 34.0512 56.5622 35.6588 56.5325 37.7047C56.4732 39.7215 54.841 41.2414 52.7933 41.2121Z" fill="url(#paint3_linear_862_8083)"/>
</g>
<defs>
<linearGradient id="paint0_linear_862_8083" x1="-0.0234375" y1="0" x2="19.4589" y2="88.2836" gradientUnits="userSpaceOnUse">
<stop stop-color="#A0D256"/>
<stop offset="1" stop-color="#77AC28"/>
</linearGradient>
<linearGradient id="paint1_linear_862_8083" x1="19.4954" y1="33.9922" x2="21.3669" y2="42.4907" gradientUnits="userSpaceOnUse">
<stop stop-color="#A0D256"/>
<stop offset="1" stop-color="#77AC28"/>
</linearGradient>
<linearGradient id="paint2_linear_862_8083" x1="34.3347" y1="33.9922" x2="36.2067" y2="42.491" gradientUnits="userSpaceOnUse">
<stop stop-color="#A0D256"/>
<stop offset="1" stop-color="#77AC28"/>
</linearGradient>
<linearGradient id="paint3_linear_862_8083" x1="49.2021" y1="33.9893" x2="51.0759" y2="42.4918" gradientUnits="userSpaceOnUse">
<stop stop-color="#A0D256"/>
<stop offset="1" stop-color="#77AC28"/>
</linearGradient>
<clipPath id="clip0_862_8083">
<rect width="76" height="75" fill="white"/>
</clipPath>
</defs>
</svg>
