<svg width="29" height="28" viewBox="0 0 29 28" fill="none" xmlns="http://www.w3.org/2000/svg">
<path d="M16.2059 0V1.92844C18.1133 1.92844 19.9002 2.41055 21.5666 3.37476C23.1528 4.3189 24.4177 5.58443 25.3613 7.17137C26.3251 8.83867 26.8069 10.6265 26.8069 12.5348H28.7344C28.7344 10.2649 28.1622 8.15568 27.0177 6.20716C25.9135 4.3189 24.4177 2.82235 22.5304 1.71751C20.5828 0.572505 18.4747 0 16.2059 0ZM6.23733 2.89266C5.69524 2.89266 5.22341 3.0634 4.82186 3.4049L1.71985 6.56874L1.8102 6.50847C1.30826 6.93032 0.97698 7.45261 0.816359 8.07533C0.675815 8.69805 0.71597 9.30069 0.936825 9.88324C1.499 11.4501 2.25191 13.0571 3.19556 14.7043C4.52069 16.9743 6.09679 19.0132 7.92386 20.8211C10.8552 23.774 14.4993 26.1042 18.8562 27.8117H18.8863C19.4685 28.0126 20.0508 28.0527 20.633 27.9322C21.2354 27.8117 21.7674 27.5505 22.2292 27.1488L25.271 24.1055C25.6725 23.7037 25.8733 23.2116 25.8733 22.629C25.8733 22.0264 25.6725 21.5242 25.271 21.1224L21.3257 17.145C20.9242 16.7433 20.4222 16.5424 19.8199 16.5424C19.2176 16.5424 18.7156 16.7433 18.3141 17.145L16.4167 19.0734C14.8908 18.3503 13.5657 17.4564 12.4413 16.3917C11.317 15.307 10.4235 13.9912 9.76097 12.4444L11.6884 10.516C12.1101 10.0741 12.3209 9.55179 12.3209 8.94915C12.3209 8.32643 12.0799 7.82423 11.5981 7.44256L11.6884 7.53296L7.65281 3.4049C7.25126 3.0634 6.77943 2.89266 6.23733 2.89266ZM16.2059 3.85687V5.78531C17.4306 5.78531 18.555 6.08663 19.579 6.68927C20.623 7.2919 21.4462 8.11551 22.0485 9.16008C22.6508 10.1846 22.952 11.3095 22.952 12.5348H24.8795C24.8795 10.968 24.4879 9.51161 23.7049 8.16572C22.9219 6.86001 21.8778 5.81544 20.5728 5.03202C19.2276 4.24859 17.772 3.85687 16.2059 3.85687ZM6.23733 4.82109C6.29757 4.82109 6.36784 4.85122 6.44815 4.91149L10.3934 8.94915C10.4135 9.0295 10.3934 9.09981 10.3332 9.16008L7.47211 11.9925L7.68293 12.5951L8.07444 13.4388C8.39568 14.1218 8.76712 14.7847 9.18875 15.4275C9.771 16.3314 10.4135 17.1048 11.1162 17.7476C12.0599 18.6717 13.1942 19.5154 14.5194 20.2787C15.1819 20.6604 15.7441 20.9416 16.2059 21.1224L16.8082 21.3936L19.7295 18.4708C19.7697 18.4306 19.7998 18.4105 19.8199 18.4105C19.84 18.4105 19.8701 18.4306 19.9102 18.4708L23.976 22.5386C24.0161 22.5788 24.0362 22.6089 24.0362 22.629C24.0362 22.629 24.0161 22.6491 23.976 22.6893L20.9643 25.6723C20.5226 26.054 20.0407 26.1544 19.5187 25.9736C15.4229 24.3867 12.0097 22.2172 9.2791 19.4652C7.59258 17.7778 6.11687 15.8594 4.85197 13.71C3.94848 12.1632 3.24576 10.6667 2.74382 9.22034V9.19021C2.66351 9.00942 2.65347 8.79849 2.7137 8.55744C2.77393 8.2963 2.88436 8.09542 3.04498 7.9548L6.02652 4.91149C6.08675 4.85122 6.15702 4.82109 6.23733 4.82109ZM16.2059 7.71375V9.64218C17.009 9.64218 17.6917 9.92342 18.2538 10.4859C18.816 11.0483 19.0971 11.7313 19.0971 12.5348H21.0245C21.0245 11.6711 20.8037 10.8675 20.362 10.1243C19.9403 9.38104 19.3581 8.79849 18.6152 8.37665C17.8723 7.93471 17.0692 7.71375 16.2059 7.71375Z" fill="#243D4C"/>
</svg>
