<svg width="64" height="76" viewBox="0 0 64 76" fill="none" xmlns="http://www.w3.org/2000/svg">
<path d="M0.294907 23.8079C0.294907 20.6561 0.294907 17.5339 0.294907 14.3821C0.294907 11.8489 1.20912 10.9358 3.7748 10.9358C11.6783 10.8769 19.051 9.10959 25.5389 4.45563C27.0134 3.39523 28.37 2.18756 29.7561 1.00934C31.2896 -0.2867 32.4692 -0.375066 33.8848 0.979885C39.5175 6.34078 46.1824 9.49251 53.8499 10.5235C55.9438 10.7886 58.0671 10.8475 60.1609 10.9358C62.4317 11.0242 63.3754 11.9373 63.3754 14.2054C63.3754 20.391 63.5819 26.5767 63.3164 32.7623C62.9626 41.923 61.1341 50.7596 55.9143 58.5653C50.7239 66.3415 43.3218 71.1722 34.7695 74.5891C32.7346 75.4138 30.9357 75.4138 28.8714 74.5891C19.4343 70.8482 11.4719 65.3401 6.34049 56.3561C2.8311 50.2294 1.20912 43.5725 0.589813 36.621C0.265416 32.3499 0.206435 28.0789 0 23.8079C0.088472 23.8079 0.206435 23.8079 0.294907 23.8079ZM57.9786 16.2378C57.0939 16.1494 56.2387 16.0022 55.4129 15.9433C46.9491 15.2952 39.37 12.4381 32.8231 6.9888C32.0269 6.34078 31.5845 6.42914 30.8472 7.01825C26.0108 11.0242 20.5255 13.7636 14.3325 15.0007C11.4719 15.5898 8.55229 15.9138 5.60323 16.3851C5.39679 23.9551 5.16086 31.4957 6.16355 39.0069C7.93299 52.5269 14.7453 62.3945 27.2494 68.05C32.7936 70.5537 30.8767 70.5537 36.362 68.0794C45.2976 64.0735 51.8741 57.7111 55.2655 48.3443C56.8285 44.0732 57.7722 39.6549 57.8902 35.1482C58.1261 28.8742 57.9786 22.6002 57.9786 16.2378Z" fill="url(#paint0_linear_862_8047)"/>
<path d="M29.5791 38.5651C32.0563 36.0908 34.4156 33.7344 36.8043 31.3485C37.3352 30.8183 37.8955 30.4353 38.7212 30.7299C39.6649 31.0834 40.0188 32.1438 39.4585 32.998C39.37 33.1452 39.2521 33.2631 39.1341 33.3809C36.362 36.1497 33.6194 38.9185 30.8177 41.6579C29.9625 42.4826 29.1958 42.4532 28.3405 41.6284C27.0134 40.3324 25.6864 39.0069 24.3593 37.6814C23.5925 36.8861 23.563 35.973 24.2413 35.325C24.9196 34.6769 25.7748 34.7358 26.5416 35.4722C27.5443 36.5032 28.5175 37.5047 29.5791 38.5651Z" fill="url(#paint1_linear_862_8047)"/>
<path d="M32.2628 53.499C28.6354 53.4401 25.7453 52.7037 23.0912 51.1131C22.7668 50.9069 22.5014 50.8774 22.118 51.0247C20.2601 51.7906 18.3727 52.5269 16.5148 53.2633C15.9839 53.4695 15.4826 53.6168 15.0402 53.175C14.5979 52.7331 14.6863 52.2324 14.9223 51.7022C15.689 49.8465 16.3968 47.9613 17.1636 46.1057C17.311 45.7522 17.311 45.4871 17.1046 45.1336C11.1475 34.9126 16.8687 22.1584 28.4585 19.7725C37.6891 17.8873 47.0081 24.3086 48.4826 33.6165C49.9572 42.8361 44.059 51.3487 34.9464 53.1455C33.9143 53.3811 32.8231 53.4106 32.2628 53.499ZM17.6944 50.4945C19.1984 49.9054 20.5255 49.4047 21.8526 48.8156C22.5604 48.4915 23.1207 48.5799 23.7695 48.9923C27.0134 51.0542 30.5523 51.7611 34.3566 51.0836C42.4076 49.6698 47.8928 41.923 46.3593 33.8816C45.2682 28.0495 41.7883 24.1024 36.185 22.3056C30.5523 20.5089 25.4209 21.8638 21.2038 25.9876C16.2199 30.8477 15.4236 38.5061 19.1984 44.4267C19.6113 45.0747 19.6998 45.6344 19.3754 46.3413C18.815 47.6668 18.3137 48.9923 17.6944 50.4945Z" fill="url(#paint2_linear_862_8047)"/>
<path fill-rule="evenodd" clip-rule="evenodd" d="M32.3141 54.2297L32.2509 54.2287C28.5216 54.1681 25.5005 53.4078 22.716 51.7391L22.7078 51.7341L22.6997 51.729C22.6022 51.667 22.5646 51.6635 22.5578 51.6629C22.5501 51.6622 22.5061 51.6583 22.3871 51.7032C20.9368 52.3009 19.4676 52.8812 18.0142 53.4552C17.6025 53.6178 17.192 53.7799 16.7837 53.9418L16.779 53.9436C16.5164 54.0456 16.1523 54.1801 15.7661 54.1916C15.33 54.2046 14.896 54.0624 14.5245 53.6913C14.1718 53.3391 14.0038 52.9233 13.9972 52.4826C13.9912 52.0819 14.1199 51.7119 14.2514 51.4148C14.6308 50.4962 14.9961 49.5695 15.364 48.6363L15.3651 48.6334C15.733 47.7001 16.1034 46.7603 16.4891 45.827L16.49 45.8247C16.5395 45.7061 16.5382 45.6635 16.5378 45.6544C16.5375 45.6478 16.5357 45.6066 16.4744 45.5017C10.265 34.8478 16.2346 21.5438 28.3113 19.0576L28.3125 19.0574C37.9478 17.0896 47.6631 23.7811 49.2034 33.5017C50.7385 43.1018 44.5936 51.9815 35.0981 53.8595C34.5415 53.9858 33.9796 54.055 33.5013 54.1035C33.3247 54.1215 33.1661 54.1361 33.0236 54.1493C32.7543 54.1741 32.5427 54.1937 32.3765 54.2199L32.3141 54.2297ZM34.9464 53.1455C44.059 51.3487 49.9572 42.8361 48.4826 33.6165C47.0081 24.3086 37.6891 17.8873 28.4585 19.7725C16.8687 22.1584 11.1475 34.9126 17.1046 45.1336C17.311 45.4871 17.311 45.7522 17.1636 46.1057C16.7802 47.0335 16.4115 47.9687 16.0429 48.9039C15.6743 49.8391 15.3056 50.7743 14.9223 51.7022C14.6863 52.2324 14.5979 52.7331 15.0402 53.175C15.4826 53.6168 15.9839 53.4695 16.5148 53.2633C16.925 53.1007 17.3367 52.9381 17.7491 52.7752C19.2047 52.2003 20.6703 51.6215 22.118 51.0247C22.5014 50.8774 22.7668 50.9069 23.0912 51.1131C25.7453 52.7037 28.6354 53.4401 32.2628 53.499C32.4521 53.4691 32.7021 53.446 32.99 53.4193C33.5539 53.3671 34.2631 53.3015 34.9464 53.1455ZM34.2287 50.3651L34.2304 50.3648C41.89 49.0197 47.0978 41.65 45.6424 34.0183L45.6419 34.0159C44.5999 28.4459 41.3089 24.7152 35.9626 23.0007C30.601 21.2907 25.7483 22.5644 21.714 26.5094L21.7133 26.5101C16.9843 31.1217 16.2193 38.3965 19.8138 44.0343C20.0572 44.4164 20.2399 44.8264 20.289 45.2841C20.3385 45.7458 20.2454 46.1912 20.0435 46.635C19.7343 47.367 19.4509 48.0791 19.1531 48.8274C19.1041 48.9505 19.0548 49.0745 19.0049 49.1998C19.8898 48.853 20.7207 48.5194 21.5528 48.1501C21.9991 47.9465 22.4468 47.8525 22.9108 47.9021C23.3685 47.9511 23.7785 48.1333 24.161 48.3764C27.2512 50.3406 30.6049 51.0104 34.2287 50.3651ZM21.8526 48.8156C20.8079 49.2793 19.7632 49.6883 18.6321 50.1288C18.5859 50.1468 18.5395 50.1649 18.4929 50.183C18.2318 50.2846 17.966 50.3881 17.6944 50.4945C17.8254 50.1767 17.9511 49.8668 18.0733 49.5632C18.209 49.2257 18.3403 48.896 18.4694 48.5717C18.7733 47.8083 19.0653 47.0748 19.3754 46.3413C19.6998 45.6344 19.6113 45.0747 19.1984 44.4267C15.4236 38.5061 16.2199 30.8477 21.2038 25.9876C25.4209 21.8638 30.5523 20.5089 36.185 22.3056C41.7883 24.1024 45.2682 28.0495 46.3593 33.8816C47.8928 41.923 42.4076 49.6698 34.3566 51.0836C30.5523 51.7611 27.0134 51.0542 23.7695 48.9923C23.1207 48.5799 22.5604 48.4915 21.8526 48.8156Z" fill="url(#paint3_linear_862_8047)"/>
<defs>
<linearGradient id="paint0_linear_862_8047" x1="0" y1="0" x2="22.9913" y2="86.7311" gradientUnits="userSpaceOnUse">
<stop stop-color="#A0D256"/>
<stop offset="1" stop-color="#77AC28"/>
</linearGradient>
<linearGradient id="paint1_linear_862_8047" x1="0" y1="0" x2="22.9913" y2="86.7311" gradientUnits="userSpaceOnUse">
<stop stop-color="#A0D256"/>
<stop offset="1" stop-color="#77AC28"/>
</linearGradient>
<linearGradient id="paint2_linear_862_8047" x1="0" y1="0" x2="22.9913" y2="86.7311" gradientUnits="userSpaceOnUse">
<stop stop-color="#A0D256"/>
<stop offset="1" stop-color="#77AC28"/>
</linearGradient>
<linearGradient id="paint3_linear_862_8047" x1="0" y1="0" x2="22.9913" y2="86.7311" gradientUnits="userSpaceOnUse">
<stop stop-color="#A0D256"/>
<stop offset="1" stop-color="#77AC28"/>
</linearGradient>
</defs>
</svg>
