<svg width="76" height="76" viewBox="0 0 76 76" fill="none" xmlns="http://www.w3.org/2000/svg">
<path d="M29.7813 70.5513C29.7813 66.8288 29.7813 63.3431 29.7813 59.6883C29.0706 59.6883 28.4615 59.6883 27.8862 59.6883C21.5579 59.6883 15.2296 59.5529 8.93509 59.7221C3.31744 59.8913 -0.066686 55.3904 0.000996482 50.8557C0.170203 38.6728 0.0348377 26.49 0.068679 14.2733C0.068679 8.82486 3.4528 5.44073 8.93509 5.44073C15.6018 5.44073 22.2347 5.40689 28.9014 5.47457C29.9167 5.47457 30.4581 5.23768 30.9657 4.29013C34.113 -1.36136 41.8626 -1.3952 45.0437 4.22245C45.619 5.20384 46.1943 5.50841 47.2772 5.47457C53.944 5.44073 60.5768 5.44073 67.2436 5.44073C72.5567 5.44073 75.9408 8.75717 75.9746 14.0364C76.0085 26.3885 76.0085 38.7405 75.9746 51.1264C75.9746 56.4057 72.6582 59.6544 67.4128 59.6883C61.0506 59.7221 54.6546 59.6883 48.2925 59.6883C47.6833 59.6883 47.0742 59.6883 46.2958 59.6883C46.2958 63.3093 46.2958 66.8288 46.2958 70.5513C49.7476 70.5513 53.1656 70.5175 56.5836 70.5513C58.5802 70.5513 59.5278 71.3297 59.7308 72.9202C59.9339 74.7138 58.9863 75.8644 57.1927 75.9321C55.7375 75.9998 54.2485 75.9659 52.7934 75.9659C41.7273 75.9659 30.695 75.8982 19.6289 75.9997C16.8201 76.0336 15.6357 73.4617 16.8539 71.905C17.4292 71.1604 18.7152 70.619 19.6966 70.5852C23.0131 70.4498 26.3295 70.5513 29.7813 70.5513ZM54.3162 54.2737C58.7494 54.2737 63.0473 54.2737 67.3113 54.2737C69.714 54.2737 70.5262 53.4276 70.5262 50.9911C70.5262 38.7405 70.5262 26.49 70.5262 14.2733C70.5262 11.8029 69.6463 10.8892 67.1759 10.8892C60.4753 10.8892 53.7409 10.8892 47.0403 10.8553C46.0928 10.8553 45.5513 11.1261 45.0776 12.0059C43.5547 14.7809 41.152 16.3038 37.937 16.2699C34.7898 16.2699 32.4209 14.7471 30.9319 12.0059C30.4581 11.0584 29.8828 10.8553 28.8676 10.8553C22.2685 10.8892 15.6695 10.8553 9.07045 10.8892C6.32931 10.8892 5.44944 11.769 5.44944 14.544C5.44944 22.0906 5.44944 29.6711 5.44944 37.2177C5.44944 41.7862 5.44944 46.3548 5.44944 50.9234C5.44944 53.3938 6.32931 54.2398 8.83356 54.2737C10.1872 54.2737 11.5409 54.2737 12.8945 54.2737C15.8049 54.2737 18.7152 54.2737 21.1179 54.2737C22.167 51.2956 22.7423 48.453 24.1298 46.1179C25.5511 43.749 27.8185 41.8539 29.7475 39.6881C26.0249 33.8674 26.3633 28.5882 30.8981 24.4934C34.8237 20.94 40.6105 20.8385 44.8407 24.2226C46.905 25.8809 48.1909 28.0467 48.6647 30.6186C49.3077 34.1381 48.2925 37.2854 45.9236 40.0603C51.169 43.3429 54.0455 47.9454 54.3162 54.2737ZM48.6647 54.1721C49.24 48.8252 44.2654 43.6475 38.377 43.4106C32.3871 43.1737 27.0402 48.3176 27.3109 54.1721C34.4176 54.1721 41.5581 54.1721 48.6647 54.1721ZM37.937 37.996C41.0843 38.0299 43.3855 35.7287 43.3855 32.6153C43.3855 29.6372 41.0504 27.2345 38.1063 27.1668C35.1621 27.0991 32.5901 29.6372 32.5901 32.6153C32.5901 35.5595 34.9929 37.9622 37.937 37.996ZM35.399 59.7898C35.399 63.4108 35.399 66.8965 35.399 70.4836C37.1925 70.4836 38.8508 70.4836 40.5767 70.4836C40.5767 66.8965 40.5767 63.377 40.5767 59.7898C38.8169 59.7898 37.1587 59.7898 35.399 59.7898ZM38.0047 5.47457C36.5834 5.47457 35.2974 6.7267 35.2974 8.14803C35.2974 9.6032 36.4819 10.8215 37.937 10.8892C39.5276 10.923 40.712 9.73857 40.6782 8.14803C40.6782 6.62517 39.4937 5.44073 38.0047 5.47457Z" fill="url(#paint0_linear_862_8036)"/>
<defs>
<linearGradient id="paint0_linear_862_8036" x1="0" y1="0.0302734" x2="19.9648" y2="89.3334" gradientUnits="userSpaceOnUse">
<stop stop-color="#A0D256"/>
<stop offset="1" stop-color="#77AC28"/>
</linearGradient>
</defs>
</svg>
