<svg width="17" height="9" viewBox="0 0 17 9" fill="none" xmlns="http://www.w3.org/2000/svg">
<g clip-path="url(#clip0_1325_8129)">
<path d="M8.51977 6.03678C10.5655 4.28639 12.5982 2.53601 14.631 0.799411C15.5243 0.0275891 16.2106 -0.0275409 16.7155 0.634021C17.2334 1.30936 17.0651 2.01227 16.1717 2.77031C13.9189 4.69987 11.6789 6.62943 9.42609 8.55898C8.73988 9.13785 8.24787 9.13785 7.57461 8.53142C5.26996 6.51917 2.97826 4.49313 0.699511 2.45332C-0.0643882 1.77797 -0.193863 1.08885 0.285193 0.441066C0.764248 -0.179149 1.50225 -0.165366 2.21436 0.468631C4.16943 2.21901 6.12449 3.94183 8.0925 5.67843C8.22198 5.80247 8.35145 5.89895 8.51977 6.03678Z" fill="#516F8B"/>
</g>
<defs>
<clipPath id="clip0_1325_8129">
<rect width="9" height="17" fill="white" transform="translate(0 9) rotate(-90)"/>
</clipPath>
</defs>
</svg>
