<svg width="32" height="33" viewBox="0 0 32 33" fill="none" xmlns="http://www.w3.org/2000/svg">
<path d="M27 0.637695H5C2.23858 0.637695 0 2.87627 0 5.6377V27.6377C0 30.3991 2.23858 32.6377 5 32.6377H27C29.7614 32.6377 32 30.3991 32 27.6377V5.6377C32 2.87627 29.7614 0.637695 27 0.637695Z" fill="#0088CC"/>
<path d="M8.09992 16.346C12.3949 14.4747 15.2589 13.2411 16.6919 12.6451C20.7834 10.9433 21.6335 10.6477 22.1877 10.6378C22.3095 10.6357 22.582 10.666 22.7586 10.8092C22.9076 10.9301 22.9486 11.0935 22.9683 11.2082C22.9879 11.3228 23.0123 11.5841 22.9929 11.7882C22.7712 14.1178 21.8118 19.7712 21.3237 22.3804C21.1172 23.4845 20.7105 23.8547 20.3168 23.8909C19.4613 23.9696 18.8116 23.3255 17.9829 22.7823C16.6862 21.9323 15.9537 21.4031 14.695 20.5737C13.2404 19.6151 14.1834 19.0883 15.0124 18.2273C15.2293 18.002 18.999 14.5732 19.0719 14.2621C19.0811 14.2232 19.0895 14.0782 19.0034 14.0016C18.9172 13.9251 18.7901 13.9512 18.6983 13.9721C18.5683 14.0016 16.4968 15.3708 12.4839 18.0796C11.8959 18.4833 11.3633 18.6801 10.8862 18.6698C10.3601 18.6584 9.34822 18.3723 8.59598 18.1278C7.67333 17.8279 6.94002 17.6693 7.00388 17.16C7.03714 16.8947 7.40248 16.6233 8.09992 16.346Z" fill="white"/>
</svg>
