<svg width="32" height="33" viewBox="0 0 32 33" fill="none" xmlns="http://www.w3.org/2000/svg">
<path d="M27 0.637695H5C2.23858 0.637695 0 2.87627 0 5.6377V27.6377C0 30.3991 2.23858 32.6377 5 32.6377H27C29.7614 32.6377 32 30.3991 32 27.6377V5.6377C32 2.87627 29.7614 0.637695 27 0.637695Z" fill="#1DA1F2"/>
<path d="M24 11.6377C23.4 11.9377 22.8 12.0377 22.1 12.1377C22.8 11.7377 23.3 11.1377 23.5 10.3377C22.9 10.7377 22.2 10.9377 21.4 11.1377C20.8 10.5377 19.9 10.1377 19 10.1377C16.9 10.1377 15.3 12.1377 15.8 14.1377C13.1 14.0377 10.7 12.7377 9 10.7377C8.1 12.2377 8.6 14.1377 10 15.1377C9.5 15.1377 9 14.9377 8.5 14.7377C8.5 16.2377 9.6 17.6377 11.1 18.0377C10.6 18.1377 10.1 18.2377 9.6 18.1377C10 19.4377 11.2 20.4377 12.7 20.4377C11.5 21.3377 9.7 21.8377 8 21.6377C9.5 22.5377 11.2 23.1377 13 23.1377C19.1 23.1377 22.5 18.0377 22.3 13.3377C23 12.9377 23.6 12.3377 24 11.6377Z" fill="white"/>
</svg>
