<svg width="103" height="68" viewBox="0 0 103 68" fill="none" xmlns="http://www.w3.org/2000/svg">
<path d="M75.1158 18.2514C78.4707 15.586 81.32 13.2881 84.1693 10.9903C87.8458 8.04909 91.89 7.31379 96.1639 9.33587C100.438 11.358 102.506 14.8966 102.46 19.6301C102.46 29.1891 102.46 38.748 102.46 48.3529C102.46 52.9945 100.392 56.4872 96.2558 58.5093C91.9819 60.5773 87.9377 59.888 84.2612 56.9927C81.3659 54.6949 78.4707 52.3511 75.1158 49.6856C75.1158 51.8916 75.1618 53.546 75.1158 55.1545C74.978 62.5075 70.4283 67.0112 63.1672 67.0112C46.1173 67.0112 29.0215 67.0112 11.9717 67.0112C4.80245 67.0112 0.114891 62.5075 0.0689347 55.3383C-0.0229782 41.0918 -0.0229782 26.8453 0.0689347 12.6447C0.0689347 5.33766 4.71054 0.879883 12.0636 0.879883C29.1134 0.879883 46.2092 0.879883 63.2591 0.879883C70.2904 0.879883 74.8861 5.33766 75.1158 12.415C75.1618 14.1613 75.1158 15.9076 75.1158 18.2514ZM37.6613 59.7042C46.0714 59.7042 54.5273 59.7042 62.9374 59.7042C66.3841 59.7042 67.7628 58.4633 67.7628 55.0626C67.8088 40.9539 67.8088 26.8912 67.7628 12.7826C67.7628 9.5197 66.3841 8.23292 63.1212 8.23292C46.1173 8.23292 29.1134 8.23292 12.1095 8.23292C8.70875 8.23292 7.42197 9.5197 7.42197 12.9664C7.42197 26.9832 7.42197 40.9999 7.42197 55.0166C7.42197 58.4174 8.75471 59.7042 12.2014 59.7042C20.6574 59.7042 29.1594 59.7042 37.6613 59.7042ZM95.1069 33.9226C95.1069 29.3269 95.061 24.7313 95.1069 20.1356C95.1069 18.3433 94.7852 16.8268 92.9929 15.9536C91.2466 15.1264 89.9138 15.8617 88.5811 16.8727C84.5369 20.1356 80.4468 23.3066 76.4486 26.6615C75.7592 27.2589 75.2078 28.4078 75.1618 29.3269C75.0239 32.3601 74.978 35.4391 75.1618 38.5182C75.2078 39.4833 75.8052 40.7241 76.5405 41.3216C80.4468 44.6304 84.491 47.8014 88.4892 51.0184C89.776 52.0754 91.1547 52.8567 92.901 52.0294C94.6933 51.2022 95.1529 49.7316 95.1069 47.8934C95.1069 43.2517 95.1069 38.5642 95.1069 33.9226Z" fill="url(#paint0_linear_862_8100)"/>
<defs>
<linearGradient id="paint0_linear_862_8100" x1="0" y1="0.879883" x2="11.542" y2="80.8371" gradientUnits="userSpaceOnUse">
<stop stop-color="#A0D256"/>
<stop offset="1" stop-color="#77AC28"/>
</linearGradient>
</defs>
</svg>
