<svg width="76" height="76" viewBox="0 0 76 76" fill="none" xmlns="http://www.w3.org/2000/svg">
<path d="M15.6095 5.93513C15.6095 4.95592 15.5798 4.2141 15.6095 3.47227C15.6689 1.27647 16.7965 -0.0291421 18.6068 0.000530931C20.3577 0.0302039 21.4557 1.30614 21.515 3.41293C21.5447 4.18442 21.515 4.9856 21.515 5.84611C25.9664 5.84611 30.2991 5.84611 34.8988 5.84611C34.8988 4.92625 34.8692 4.00639 34.8988 3.08652C35.0175 1.21712 36.1749 0.000530931 37.8071 0.000530931C39.4689 -0.0291421 40.6559 1.18745 40.7747 3.02718C40.834 3.91737 40.7747 4.80756 40.7747 5.81644C45.2854 5.81644 49.7071 5.81644 54.3069 5.81644C54.3069 4.89658 54.2772 3.97671 54.3069 3.05685C54.3662 1.27647 55.6126 0.000530931 57.2744 0.000530931C58.9363 0.000530931 60.153 1.27647 60.2123 3.05685C60.242 3.94704 60.2123 4.83723 60.2123 5.93513C61.4884 5.93513 62.7051 5.93513 63.9218 5.93513C70.7176 5.9648 75.9109 11.1873 75.9406 17.9824C75.9702 23.3829 75.9406 28.7833 75.9406 34.1542C75.9406 36.3203 74.8129 37.6556 73.0026 37.6852C71.1924 37.6852 70.0351 36.35 70.0351 34.2135C70.0351 28.9614 70.0351 23.7093 70.0351 18.4868C70.0351 14.3029 67.6016 11.8994 63.3877 11.8697C62.4084 11.8697 61.4291 11.8697 60.3014 11.8697C60.2717 12.4335 60.242 12.9083 60.242 13.3831C60.242 16.4097 59.3517 17.7747 57.3338 17.8043C55.2862 17.834 54.3365 16.4394 54.3365 13.294C54.3365 12.9083 54.3365 12.4929 54.3365 11.9884C49.8851 11.9884 45.4634 11.9884 40.8043 11.9884C40.8043 12.8786 40.8637 13.8281 40.8043 14.7183C40.6856 16.5877 39.5283 17.7747 37.8664 17.7747C36.2046 17.7747 35.0472 16.5877 34.9285 14.7183C34.8692 13.8281 34.9285 12.938 34.9285 11.9587C30.4474 11.9587 26.0851 11.9587 21.515 11.9587C21.515 12.9973 21.5744 13.9765 21.515 14.9557C21.3666 16.7064 20.1202 17.834 18.5177 17.8043C16.9746 17.7747 15.8172 16.6471 15.6689 14.9557C15.5798 13.9765 15.6689 12.9973 15.6689 11.9587C13.9477 11.9587 12.4045 11.7807 10.9207 11.9884C7.83443 12.4632 5.96485 14.9261 5.93517 18.2494C5.93517 27.5964 5.93517 36.9434 5.93517 46.2904C5.93517 52.0173 5.93517 57.7739 5.93517 63.5008C5.93517 67.5956 8.39827 70.0288 12.4935 70.0288C19.7048 70.0288 26.9457 70.0288 34.1569 70.0288C36.2342 70.0288 37.4806 71.1861 37.4806 72.9961C37.4806 74.6281 36.3233 75.9337 34.6021 75.9337C26.738 75.9634 18.8739 76.0821 11.0097 75.9041C5.0449 75.7557 0.0296759 70.4146 0 64.4206C0 48.8126 0 33.1749 0.0296759 17.5373C0.0593517 11.2763 5.34166 6.05382 11.6033 5.93513C12.8793 5.93513 14.1554 5.93513 15.6095 5.93513Z" fill="url(#paint0_linear_816_6224)"/>
<path d="M58.0163 75.9931C48.1046 75.9931 40.0624 67.8627 40.0921 57.9222C40.1218 48.1005 48.2233 40.0591 58.0757 40.0591C67.9874 40.0591 76.0296 48.1895 75.9999 58.1299C75.9702 67.9814 67.8687 75.9931 58.0163 75.9931ZM57.9867 70.0585C64.5747 70.0882 70.0054 64.6877 70.0647 58.1596C70.0944 51.5129 64.6934 46.0234 58.0757 46.0234C51.4876 45.9937 46.057 51.3942 45.9976 57.9222C45.9679 64.569 51.3689 70.0585 57.9867 70.0585Z" fill="url(#paint1_linear_816_6224)"/>
<path d="M34.424 31.1869C34.424 32.8189 32.9996 34.1838 31.3674 34.1245C29.7946 34.0651 28.4888 32.7299 28.4888 31.1572C28.4888 29.5252 29.9133 28.1602 31.5455 28.2196C33.148 28.2492 34.4537 29.6142 34.424 31.1869Z" fill="url(#paint2_linear_816_6224)"/>
<path d="M60.2717 31.1275C60.3014 32.7595 58.9363 34.1542 57.3041 34.1542C55.7313 34.1542 54.3959 32.8189 54.3662 31.2462C54.3365 29.6142 55.7016 28.2196 57.3338 28.2196C58.9066 28.2196 60.242 29.5252 60.2717 31.1275Z" fill="url(#paint3_linear_816_6224)"/>
<path d="M34.424 57.1211C34.3647 58.7531 32.9105 60.0587 31.2784 59.9697C29.7056 59.851 28.4592 58.4563 28.5185 56.8837C28.5779 55.2517 30.032 53.946 31.6642 54.0351C33.237 54.1538 34.513 55.5484 34.424 57.1211Z" fill="url(#paint4_linear_816_6224)"/>
<path d="M18.6364 28.2196C20.2983 28.2492 21.5744 29.6142 21.4853 31.3055C21.426 32.9079 20.0906 34.1542 18.5177 34.1245C16.8559 34.0948 15.5798 32.7299 15.6689 31.0385C15.6985 29.4361 17.034 28.1602 18.6364 28.2196Z" fill="url(#paint5_linear_816_6224)"/>
<path d="M47.3033 31.1869C47.3033 32.8189 46.0273 34.0948 44.4248 34.1245C42.7629 34.1542 41.4572 32.8189 41.4572 31.1275C41.4572 29.4955 42.7333 28.2196 44.3358 28.1899C45.9976 28.1899 47.333 29.5252 47.3033 31.1869Z" fill="url(#paint6_linear_816_6224)"/>
<path d="M31.2487 47.0026C29.6462 46.8839 28.4295 45.5486 28.5185 43.9463C28.6075 42.2846 30.0023 41.068 31.6938 41.1867C33.2963 41.3054 34.513 42.6406 34.424 44.243C34.335 45.875 32.9402 47.0916 31.2487 47.0026Z" fill="url(#paint7_linear_816_6224)"/>
<path d="M21.4853 57.0024C21.4853 58.6344 20.2389 59.9103 18.6364 59.94C16.9746 59.9697 15.6392 58.6641 15.6392 56.9727C15.6392 55.2813 16.9746 53.9757 18.6364 54.0351C20.2389 54.0944 21.4853 55.3703 21.4853 57.0024Z" fill="url(#paint8_linear_816_6224)"/>
<path d="M18.6068 47.0026C16.9449 47.0322 15.6689 45.8156 15.6392 44.154C15.6095 42.4329 16.8856 41.1273 18.6068 41.157C20.2389 41.1867 21.515 42.4329 21.515 44.0649C21.4853 45.7266 20.2389 47.0026 18.6068 47.0026Z" fill="url(#paint9_linear_816_6224)"/>
<path d="M60.9542 54.9253C61.8445 55.0439 62.438 55.0736 63.0019 55.1923C64.367 55.4594 65.3166 56.6463 65.3166 58.0409C65.3166 59.4356 64.367 60.7412 62.9722 60.8599C61.162 61.0082 59.3221 61.0082 57.5118 60.8895C56.1171 60.8005 55.2268 59.8213 55.1674 58.4267C55.0784 56.1715 55.0487 53.8867 55.1674 51.6316C55.2565 50.0589 56.5325 49.0203 58.0163 48.9907C59.5298 48.9907 60.7465 50.0292 60.8949 51.6019C61.0433 52.6701 60.9542 53.7383 60.9542 54.9253Z" fill="url(#paint10_linear_816_6224)"/>
<defs>
<linearGradient id="paint0_linear_816_6224" x1="0" y1="0" x2="19.98" y2="89.3353" gradientUnits="userSpaceOnUse">
<stop stop-color="#A0D256"/>
<stop offset="1" stop-color="#77AC28"/>
</linearGradient>
<linearGradient id="paint1_linear_816_6224" x1="0" y1="0" x2="19.98" y2="89.3353" gradientUnits="userSpaceOnUse">
<stop stop-color="#A0D256"/>
<stop offset="1" stop-color="#77AC28"/>
</linearGradient>
<linearGradient id="paint2_linear_816_6224" x1="0" y1="0" x2="19.98" y2="89.3353" gradientUnits="userSpaceOnUse">
<stop stop-color="#A0D256"/>
<stop offset="1" stop-color="#77AC28"/>
</linearGradient>
<linearGradient id="paint3_linear_816_6224" x1="0" y1="0" x2="19.98" y2="89.3353" gradientUnits="userSpaceOnUse">
<stop stop-color="#A0D256"/>
<stop offset="1" stop-color="#77AC28"/>
</linearGradient>
<linearGradient id="paint4_linear_816_6224" x1="0" y1="0" x2="19.98" y2="89.3353" gradientUnits="userSpaceOnUse">
<stop stop-color="#A0D256"/>
<stop offset="1" stop-color="#77AC28"/>
</linearGradient>
<linearGradient id="paint5_linear_816_6224" x1="0" y1="0" x2="19.98" y2="89.3353" gradientUnits="userSpaceOnUse">
<stop stop-color="#A0D256"/>
<stop offset="1" stop-color="#77AC28"/>
</linearGradient>
<linearGradient id="paint6_linear_816_6224" x1="0" y1="0" x2="19.98" y2="89.3353" gradientUnits="userSpaceOnUse">
<stop stop-color="#A0D256"/>
<stop offset="1" stop-color="#77AC28"/>
</linearGradient>
<linearGradient id="paint7_linear_816_6224" x1="0" y1="0" x2="19.98" y2="89.3353" gradientUnits="userSpaceOnUse">
<stop stop-color="#A0D256"/>
<stop offset="1" stop-color="#77AC28"/>
</linearGradient>
<linearGradient id="paint8_linear_816_6224" x1="0" y1="0" x2="19.98" y2="89.3353" gradientUnits="userSpaceOnUse">
<stop stop-color="#A0D256"/>
<stop offset="1" stop-color="#77AC28"/>
</linearGradient>
<linearGradient id="paint9_linear_816_6224" x1="0" y1="0" x2="19.98" y2="89.3353" gradientUnits="userSpaceOnUse">
<stop stop-color="#A0D256"/>
<stop offset="1" stop-color="#77AC28"/>
</linearGradient>
<linearGradient id="paint10_linear_816_6224" x1="0" y1="0" x2="19.98" y2="89.3353" gradientUnits="userSpaceOnUse">
<stop stop-color="#A0D256"/>
<stop offset="1" stop-color="#77AC28"/>
</linearGradient>
</defs>
</svg>
