<svg width="76" height="72" viewBox="0 0 76 72" fill="none" xmlns="http://www.w3.org/2000/svg">
<path d="M38.0145 0.310918C43.7115 0.310918 49.3789 0.429606 55.0759 0.281246C66.4403 -0.0154748 76.2617 9.39056 75.9947 21.289C75.876 27.0158 75.9947 32.7425 75.965 38.4988C75.965 49.9226 66.9447 59.0022 55.4913 59.0616C47.1238 59.1209 38.7859 59.0616 30.4184 59.1209C29.6173 59.1209 28.6974 59.477 28.0743 59.9814C23.8609 63.3343 19.7068 66.7466 15.5527 70.1886C14.6922 70.9007 13.8021 71.2864 12.7042 70.782C11.636 70.3073 11.4877 69.3281 11.4877 68.2896C11.5173 64.9663 11.458 61.6727 11.5173 58.3494C11.5173 57.3999 11.28 56.8658 10.4195 56.3614C3.62458 52.326 0.123278 46.3322 0.0342623 38.4395C-0.0250818 32.5644 0.00459028 26.6894 0.0342623 20.7846C0.0342623 9.47958 8.9062 0.459278 20.2409 0.34059C26.1457 0.251574 32.0801 0.310918 38.0145 0.310918ZM15.9681 63.9871C16.5022 63.6014 16.7693 63.4233 17.0363 63.2156C19.9442 60.8419 22.8817 58.4978 25.7302 56.035C26.9171 54.9965 28.1634 54.5811 29.736 54.5811C38.3409 54.6404 46.9458 54.6404 55.5506 54.6107C64.4819 54.5514 71.5142 47.4598 71.5439 38.5582C71.5735 32.6238 71.5735 26.6894 71.5439 20.755C71.5142 11.883 64.5709 4.82107 55.699 4.7914C43.9192 4.73205 32.1691 4.73205 20.3893 4.7914C11.4283 4.82107 4.51474 11.883 4.48507 20.8736C4.48507 26.7487 4.39605 32.6534 4.51474 38.5285C4.63343 45.3234 7.80833 50.2786 13.9801 53.1865C15.434 53.8689 16.0572 54.8481 15.9978 56.4207C15.9385 58.8242 15.9681 61.2573 15.9681 63.9871Z" fill="url(#paint0_linear_862_8097)"/>
<path d="M40.2399 30.339C40.2399 33.5436 40.2695 36.7482 40.2399 39.9528C40.2399 41.7331 39.4387 42.7123 38.1035 42.7716C36.7089 42.8309 35.8187 41.7628 35.8187 39.9528C35.7891 33.4843 35.7891 27.0158 35.8187 20.5472C35.8187 18.4702 37.0353 17.3723 38.6969 17.8471C39.9728 18.2328 40.2695 19.2417 40.2695 20.3989C40.2399 23.7222 40.2399 27.0158 40.2399 30.339Z" fill="url(#paint1_linear_862_8097)"/>
<path d="M17.9858 30.2203C17.9858 28.2026 17.9562 26.1849 17.9858 24.1672C18.0155 22.4166 18.8463 21.4374 20.2112 21.4374C21.5762 21.4374 22.407 22.4166 22.407 24.1969C22.4366 28.2323 22.4366 32.2974 22.407 36.3328C22.407 38.1131 21.5762 39.0626 20.1816 39.0329C18.787 39.0329 18.0155 38.0834 17.9858 36.3031C17.9562 34.2854 17.9858 32.238 17.9858 30.2203Z" fill="url(#paint2_linear_862_8097)"/>
<path d="M58.0134 30.3687C58.0134 31.7039 58.0431 33.0392 58.0134 34.3744C57.9541 35.8877 57.0936 36.8372 55.8474 36.8669C54.5715 36.8965 53.6516 35.947 53.622 34.4634C53.5626 31.7039 53.5626 28.9444 53.622 26.1849C53.6516 24.6123 54.4824 23.7518 55.788 23.7222C57.1529 23.6925 57.9837 24.6123 58.0431 26.2739C58.0728 27.6092 58.0431 28.9741 58.0134 30.3687Z" fill="url(#paint3_linear_862_8097)"/>
<path d="M31.2789 30.3093C31.2789 31.2885 31.3383 32.2974 31.2492 33.2766C31.1306 34.5821 30.1811 35.4426 29.0238 35.3833C27.7776 35.2943 26.9765 34.5821 26.9171 33.3359C26.8281 31.3182 26.8281 29.3005 26.9171 27.2828C26.9765 25.9476 27.926 25.1464 29.1425 25.2058C30.4778 25.2651 31.2196 26.0662 31.2789 27.3718C31.3383 28.3213 31.3086 29.3302 31.2789 30.3093C31.3086 30.3093 31.3086 30.3093 31.2789 30.3093Z" fill="url(#paint4_linear_862_8097)"/>
<path d="M66.915 30.3687C66.915 31.3182 66.9744 32.238 66.915 33.1875C66.826 34.4931 65.9359 35.3536 64.7786 35.3833C63.6214 35.4129 62.6126 34.5524 62.5532 33.2766C62.4642 31.2589 62.4642 29.2412 62.5532 27.2235C62.6126 25.9772 63.4137 25.2651 64.6896 25.2058C65.9062 25.1464 66.7963 25.9476 66.915 27.2828C66.9744 28.2916 66.915 29.3302 66.915 30.3687Z" fill="url(#paint5_linear_862_8097)"/>
<path d="M13.5647 30.2797C13.5054 30.9028 13.535 31.5556 13.3867 32.1787C13.1493 33.2766 12.3778 33.87 11.28 33.87C10.1821 33.87 9.35128 33.2766 9.20292 32.149C9.05456 30.9918 9.05456 29.8049 9.14358 28.618C9.23259 27.3421 10.0634 26.6597 11.3096 26.6597C12.5559 26.6597 13.3273 27.3718 13.4757 28.6477C13.535 29.1818 13.4757 29.7159 13.4757 30.2797C13.5054 30.2797 13.535 30.2797 13.5647 30.2797Z" fill="url(#paint6_linear_862_8097)"/>
<path d="M44.7203 30.1313C44.7203 29.6269 44.661 29.1521 44.7203 28.6477C44.8687 27.4015 45.6105 26.6597 46.8567 26.6597C48.103 26.6597 48.9338 27.3125 49.0525 28.5884C49.1415 29.6566 49.1415 30.7544 49.0525 31.8226C48.9635 33.0688 48.1623 33.781 46.9161 33.8403C45.7589 33.8997 44.839 33.0095 44.6907 31.7336C44.661 31.2292 44.7203 30.6654 44.7203 30.1313Z" fill="url(#paint7_linear_862_8097)"/>
<defs>
<linearGradient id="paint0_linear_862_8097" x1="0" y1="0.274414" x2="17.4195" y2="83.9561" gradientUnits="userSpaceOnUse">
<stop stop-color="#A0D256"/>
<stop offset="1" stop-color="#77AC28"/>
</linearGradient>
<linearGradient id="paint1_linear_862_8097" x1="0" y1="0.274414" x2="17.4195" y2="83.9561" gradientUnits="userSpaceOnUse">
<stop stop-color="#A0D256"/>
<stop offset="1" stop-color="#77AC28"/>
</linearGradient>
<linearGradient id="paint2_linear_862_8097" x1="0" y1="0.274414" x2="17.4195" y2="83.9561" gradientUnits="userSpaceOnUse">
<stop stop-color="#A0D256"/>
<stop offset="1" stop-color="#77AC28"/>
</linearGradient>
<linearGradient id="paint3_linear_862_8097" x1="0" y1="0.274414" x2="17.4195" y2="83.9561" gradientUnits="userSpaceOnUse">
<stop stop-color="#A0D256"/>
<stop offset="1" stop-color="#77AC28"/>
</linearGradient>
<linearGradient id="paint4_linear_862_8097" x1="0" y1="0.274414" x2="17.4195" y2="83.9561" gradientUnits="userSpaceOnUse">
<stop stop-color="#A0D256"/>
<stop offset="1" stop-color="#77AC28"/>
</linearGradient>
<linearGradient id="paint5_linear_862_8097" x1="0" y1="0.274414" x2="17.4195" y2="83.9561" gradientUnits="userSpaceOnUse">
<stop stop-color="#A0D256"/>
<stop offset="1" stop-color="#77AC28"/>
</linearGradient>
<linearGradient id="paint6_linear_862_8097" x1="0" y1="0.274414" x2="17.4195" y2="83.9561" gradientUnits="userSpaceOnUse">
<stop stop-color="#A0D256"/>
<stop offset="1" stop-color="#77AC28"/>
</linearGradient>
<linearGradient id="paint7_linear_862_8097" x1="0" y1="0.274414" x2="17.4195" y2="83.9561" gradientUnits="userSpaceOnUse">
<stop stop-color="#A0D256"/>
<stop offset="1" stop-color="#77AC28"/>
</linearGradient>
</defs>
</svg>
